<?xml version="1.0" encoding="utf-8"?>
<!-- Generator: Adobe Illustrator 27.5.0, SVG Export Plug-In . SVG Version: 6.00 Build 0)  -->
<svg version="1.1" xmlns="http://www.w3.org/2000/svg" xmlns:xlink="http://www.w3.org/1999/xlink" x="0px" y="0px"
	 viewBox="0 0 3710 3710" style="enable-background:new 0 0 3710 3710;" xml:space="preserve">
<g id="Background">
	<g>
		<g>
			<rect style="fill:#FFFFFF;" width="3710" height="3710"/>
		</g>
	</g>
</g>
<g id="Illustration">
	<g>
		<path style="fill:#F4F7FA;" d="M1951.181,420.467c-853.095-67.597-1438.708,699.663-1556.51,1329.984
			c-18.8,100.594-121.304,649.057,235.87,1101.861c378.648,480.026,982.393,482.988,1154.079,474.969
			c612.751-28.618,1381.098-461.479,1489.861-1251.094C3385.943,1266.997,2775.481,485.783,1951.181,420.467z"/>
		<g>
			<g>
				<g>
					<defs>
						<path id="SVGID_1_" d="M1758.955,2874.916c-52.81-140.93-108.607-355.016-62.661-596.083
							c60.258-316.156,242.568-400.942,462.313-878.078c138.943-301.688,232.868-513.63,137.625-698.823
							c-74.637-145.126-256.508-256.45-411.912-232.82c-129.214,19.648-255.258,134.897-322.511,228.378
							c-54.811,76.187-73.468,141.943-142.911,162.046c-70.969,20.544-111.269-30.822-173.34-20.3
							c-125.877,21.34-181.966,270.205-191.031,310.426c-100.838,447.416,134.383,898.886,239.359,1094.583
							C1380.683,2406.053,1525.08,2635.859,1758.955,2874.916z"/>
					</defs>
					
						<linearGradient id="SVGID_00000088112242271849103630000003206706041348385942_" gradientUnits="userSpaceOnUse" x1="1029.9442" y1="1670.4266" x2="2334.9097" y2="1670.4266">
						<stop  offset="0" style="stop-color:#AA80F9"/>
						<stop  offset="0.9964" style="stop-color:#6165D7"/>
					</linearGradient>
					
						<use xlink:href="#SVGID_1_"  style="overflow:visible;fill:url(#SVGID_00000088112242271849103630000003206706041348385942_);"/>
					<clipPath id="SVGID_00000062156435566619172500000009579246933881196429_">
						<use xlink:href="#SVGID_1_"  style="overflow:visible;"/>
					</clipPath>
					<g style="opacity:0.5;clip-path:url(#SVGID_00000062156435566619172500000009579246933881196429_);">
						<path style="fill:#FFFFFF;" d="M1835.719,3003.579c-139.321-149.847-248.546-300.463-324.633-447.664
							c-112.586-217.82-148.846-422.065-107.764-607.067c32.128-144.694,112.969-278.877,215.316-448.759
							c84.863-140.857,157.643-232.947,221.859-314.196c83.283-105.377,149.065-188.609,201.721-329.97
							c53.497-143.6,75.519-301.792,65.457-470.179l6.991-0.417c10.12,169.367-12.046,328.52-65.882,473.041
							c-53.046,142.394-119.129,226.009-202.792,331.868c-64.086,81.087-136.722,172.992-221.342,313.447
							c-106.02,175.975-182.61,303.105-214.488,446.683c-40.716,183.357-4.668,386.01,107.145,602.331
							c75.796,146.637,184.651,296.73,323.542,446.11L1835.719,3003.579z"/>
						<path style="fill:#FFFFFF;" d="M1696.367,1402.676c-6.06,0-9.378-0.139-9.57-0.147l-3.953-0.188l0.667-3.901
							c52.071-305.019-7.986-541.652-67.537-686.451c-64.544-156.933-142.417-242.836-143.196-243.684l5.161-4.737
							c0.787,0.857,79.357,87.469,144.383,245.445c59.715,145.07,119.946,381.726,68.768,686.62
							c21.714,0.362,129.642-0.523,260.123-46.898c85.369-30.341,163.553-73.941,232.382-129.588
							c86.029-69.556,157.626-158.257,212.795-263.639l6.204,3.249c-55.648,106.295-127.898,195.775-214.745,265.956
							c-69.486,56.151-148.409,100.132-234.571,130.721C1830.51,1399.02,1727.435,1402.676,1696.367,1402.676z"/>
						<path style="fill:#FFFFFF;" d="M1463.902,1787.81l-1.874-1.724c-60.85-56.025-111.078-150.418-149.284-280.558
							c-30.48-103.822-53.456-230.578-68.289-376.748c-25.244-248.742-18.027-470.565-17.949-472.776l6.997,0.239
							c-0.075,2.208-7.274,223.625,17.928,471.908c23.11,227.68,78.919,524.921,213.49,651.063
							c20.466-11.309,177.411-96.693,350.817-153.631c185.821-61.023,498.319,40.485,501.456,41.518l-2.189,6.652
							c-3.112-1.023-313.439-101.817-497.085-41.515c-184.398,60.548-350.147,153.392-351.802,154.322L1463.902,1787.81z"/>
						<path style="fill:#FFFFFF;" d="M1479.3,2494.955l-5.852-3.808c-1.361-0.886-137.905-90.443-295.076-250.381
							c-145.084-147.639-337.992-387.207-433.064-690.083L561.665,965.648l6.683-2.096l183.642,585.034
							c94.634,301.479,286.748,540.072,431.248,687.138c138.357,140.813,260.615,226.864,288.226,245.656
							c-4.648-94.22,18.54-178.753,68.977-251.35c41.291-59.436,100.811-110.993,176.908-153.238
							c129.311-71.791,263.71-92.081,265.055-92.276l1.012,6.929c-1.33,0.195-134.629,20.341-262.832,91.561
							c-75.109,41.725-133.805,92.563-174.449,151.104c-50.727,73.055-73.361,158.472-67.28,253.879L1479.3,2494.955z"/>
					</g>
				</g>
			</g>
			<g>
				<g>
					<defs>
						<path id="SVGID_00000150806733844939505900000015625074130711427256_" d="M1736.587,2835.393
							c-237.62-0.749-540.219-35.605-829.035-169.705c-73.706-34.223-529.031-245.635-472.947-453.413
							c19.755-73.19,86.283-84.118,114.407-181.512c33.324-115.404-38.752-173.928-87.68-318.652
							c-29.195-86.356-114.636-339.077,37.631-477.026c90.991-82.434,262.75-120.154,392.886-88.41
							c190.883,46.562,254.814,233.447,357.518,551.532c91.043,281.97,66.251,350.718,135.353,552.618
							C1436.004,2400.667,1533.322,2607.238,1736.587,2835.393z"/>
					</defs>
					
						<linearGradient id="SVGID_00000084527455459450834960000004468164129176794794_" gradientUnits="userSpaceOnUse" x1="1376.1732" y1="1301.1892" x2="960.4189" y2="2417.1631">
						<stop  offset="0.0036" style="stop-color:#E38DDD"/>
						<stop  offset="1" style="stop-color:#9571F6"/>
					</linearGradient>
					
						<use xlink:href="#SVGID_00000150806733844939505900000015625074130711427256_"  style="overflow:visible;fill:url(#SVGID_00000084527455459450834960000004468164129176794794_);"/>
					<clipPath id="SVGID_00000054945712181860322260000007976107340885545607_">
						<use xlink:href="#SVGID_00000150806733844939505900000015625074130711427256_"  style="overflow:visible;"/>
					</clipPath>
					<g style="opacity:0.5;clip-path:url(#SVGID_00000054945712181860322260000007976107340885545607_);">
						<path style="fill:#FFFFFF;" d="M2346.997,2968.991c-119.502,0.002-236.446-14.303-350.106-42.921
							c-319.67-80.487-595.628-275.079-820.209-578.369c-233.497-315.337-352.986-669.271-412.105-910.659
							c-41.164-168.083-31.106-353.495,29.905-551.083l6.69,2.066c-60.628,196.36-70.652,380.516-29.789,547.352
							c58.966,240.762,178.122,593.756,410.929,908.155c223.589,301.956,498.23,495.664,816.29,575.746
							c238.744,60.112,492.156,56.751,753.199-9.989l1.738,6.785C2615.578,2951.347,2479.711,2968.99,2346.997,2968.991z"/>
						<path style="fill:#FFFFFF;" d="M928.868,1913.138l-2.627-1.736c-508.494-336.068-499.52-716.572-484.66-825.187
							c0.267-1.946,0.52-3.786,0.53-4.227l7.004,0.017c0,0.78-0.154,1.934-0.595,5.159
							c-14.696,107.401-23.458,483.255,478.921,816.63c11.481-14.508,70.823-92.096,120.206-205.307
							c50.361-115.461,100.377-292.687,52.632-481.303l6.792-1.72c48.247,190.613-2.24,369.506-53.087,486.016
							c-55.053,126.138-122.436,208.414-123.11,209.23L928.868,1913.138z"/>
						<path style="fill:#FFFFFF;" d="M993.279,2356.762c-69.387,0-135.522-6.019-197.85-18.053
							c-92.148-17.793-176.211-48.694-249.856-91.845c-65.577-38.425-110.586-79.657-136.797-107.482
							c-28.483-30.235-41.246-51.093-41.777-51.965l5.989-3.634c0.51,0.838,52.314,84.602,176.522,157.268
							c207.002,121.104,453.078,119.216,623.755,96.086c11.283-24.26,137.259-305.126,112.576-683.8l-26.068-399.944l6.991-0.455
							l26.068,399.943c25.829,396.286-112.658,686.119-114.06,689l-0.821,1.684l-1.854,0.253
							C1113.061,2352.449,1052.006,2356.762,993.279,2356.762z"/>
					</g>
				</g>
			</g>
			<g>
				<g>
					<defs>
						<path id="SVGID_00000024705489411946141390000006530909748093452734_" d="M1596.824,2942.3
							c0.609-24.141,2.017-166.476-102.775-253.683c-87.728-73.007-202.21-67.703-228.728-66.474
							c-106.783,4.948-133.237,54.417-198.932,31.893c-78.012-26.746-83.447-111.154-145.752-113.157
							c-42.982-1.382-85.891,37.325-99.036,77.322c-23.073,70.204,40.048,161.114,113.531,197.018
							c101.24,49.465,167.631-32.12,287.325,17.927c69.556,29.082,68.198,65.439,141.013,97.885
							C1448.025,2968.705,1535.426,2957.809,1596.824,2942.3z"/>
					</defs>
					
						<linearGradient id="SVGID_00000179614732054646903140000010355308863707165851_" gradientUnits="userSpaceOnUse" x1="816.7676" y1="2748.7263" x2="1596.9313" y2="2748.7263">
						<stop  offset="0" style="stop-color:#FF9085"/>
						<stop  offset="1" style="stop-color:#FB6FBB"/>
					</linearGradient>
					
						<use xlink:href="#SVGID_00000024705489411946141390000006530909748093452734_"  style="overflow:visible;fill:url(#SVGID_00000179614732054646903140000010355308863707165851_);"/>
					<clipPath id="SVGID_00000161622004526101926630000002598016463818120122_">
						<use xlink:href="#SVGID_00000024705489411946141390000006530909748093452734_"  style="overflow:visible;"/>
					</clipPath>
					<g style="opacity:0.5;clip-path:url(#SVGID_00000161622004526101926630000002598016463818120122_);">
						<path style="fill:#FFFFFF;" d="M1630.708,2995.375c-35.785-46.736-74.904-91.873-116.27-134.159
							c-82.606-84.444-124.071-126.829-173.946-144.339c-64.647-22.698-115.463-4.241-164.596,13.615
							c-44.779,16.268-87.066,31.636-138.244,17.762c-80.697-21.884-145.378-109.647-192.247-260.855l3.345-1.036
							c46.49,149.987,110.353,236.962,189.819,258.512c50.101,13.586,91.888-1.599,136.13-17.675
							c49.715-18.065,101.119-36.739,166.956-13.627c50.645,17.779,92.298,60.361,175.287,145.194
							c41.465,42.385,80.677,87.632,116.55,134.477L1630.708,2995.375z"/>
						<path style="fill:#FFFFFF;" d="M939.73,2758.92c-35.644,0.002-82.199-7.682-138.159-33.438l1.464-3.181
							c130.583,60.105,208.985,20.837,215.952,17.07c31.869-80.41-20.736-196.629-21.273-197.795l3.181-1.464
							c0.544,1.183,54.027,119.303,21.112,201.138l-0.222,0.549l-0.506,0.303C1020.804,2742.385,992.007,2758.918,939.73,2758.92z"
							/>
						<path style="fill:#FFFFFF;" d="M1083.898,2885.944l-3.304-1.163c14.747-41.914,63.019-83.481,143.477-123.552
							c54.267-27.025,105.589-44.143,114.96-47.187c-18.126-79.644-215.378-77.708-217.317-77.657l-0.055-3.502
							c0.51-0.005,51.517-0.638,103.882,8.983c70.841,13.017,110.288,37.585,117.248,73.023l0.304,1.539l-1.498,0.469
							C1339.37,2717.596,1118.386,2787.924,1083.898,2885.944z"/>
						<path style="fill:#FFFFFF;" d="M1227.919,2923.364l-3.222-1.378c25.38-59.276,82.394-90.624,164.876-90.657
							c0.041,0,0.082,0,0.123,0c55.351,0,105.261,14.173,115.688,17.331c17.641-129.702-98.882-247.217-100.069-248.395l2.469-2.483
							c1.204,1.195,120.182,121.145,100.78,253.414l-0.304,2.054l-1.973-0.645
							C1504.109,2851.894,1287.917,2783.215,1227.919,2923.364z"/>
					</g>
				</g>
			</g>
		</g>
		<g>
			<g>
				
					<linearGradient id="SVGID_00000030474830894788517120000006031766303070644670_" gradientUnits="userSpaceOnUse" x1="1533.9883" y1="2233.5454" x2="671.8816" y2="2325.0542">
					<stop  offset="0" style="stop-color:#FFC444"/>
					<stop  offset="0.9964" style="stop-color:#F36F56"/>
				</linearGradient>
				<path style="fill:url(#SVGID_00000030474830894788517120000006031766303070644670_);" d="M3120.316,1563.868l-1934.964-72.489
					c-40.859-1.531-74.749,34.026-74.749,78.424v1354.301c0,45.65,35.745,81.666,77.664,78.25l1934.964-157.651
					c37.704-3.072,66.852-37.19,66.852-78.251V1642.291C3190.083,1600.006,3159.23,1565.325,3120.316,1563.868z"/>
			</g>
			<g>
				
					<linearGradient id="SVGID_00000144323257033781808320000003582702645974369702_" gradientUnits="userSpaceOnUse" x1="1985.2599" y1="1843.9247" x2="2734.8586" y2="3504.1096">
					<stop  offset="0" style="stop-color:#FFC444"/>
					<stop  offset="0.9964" style="stop-color:#F36F56"/>
				</linearGradient>
				<path style="fill:url(#SVGID_00000144323257033781808320000003582702645974369702_);" d="M3153.577,1563.868l-1934.965-72.489
					c-40.859-1.531-74.749,34.026-74.749,78.424v1354.301c0,45.65,35.745,81.666,77.664,78.25l1934.964-157.651
					c37.704-3.072,66.852-37.19,66.852-78.251V1642.291C3223.344,1600.006,3192.491,1565.325,3153.577,1563.868z"/>
			</g>
			<g>
				
					<linearGradient id="SVGID_00000171678761652218122500000017890685407327287955_" gradientUnits="userSpaceOnUse" x1="2163.9729" y1="2061.2319" x2="2240.0044" y2="400.0692">
					<stop  offset="0" style="stop-color:#FFC444"/>
					<stop  offset="0.9964" style="stop-color:#F36F56"/>
				</linearGradient>
				<path style="fill:url(#SVGID_00000171678761652218122500000017890685407327287955_);" d="M2393.897,2316.975l810.787-727.192
					c-12.681-15.259-30.765-25.153-51.107-25.914l-1934.965-72.489c-18.411-0.689-35.393,6.167-48.511,17.954l1083.9,814.12
					C2296.714,2355.535,2353.854,2352.889,2393.897,2316.975z"/>
				
					<linearGradient id="SVGID_00000125581284172239382740000012217132944556885404_" gradientUnits="userSpaceOnUse" x1="1985.4375" y1="1844.3762" x2="2734.7769" y2="3503.9863">
					<stop  offset="0" style="stop-color:#FFC444"/>
					<stop  offset="0.9964" style="stop-color:#F36F56"/>
				</linearGradient>
				<path style="fill:url(#SVGID_00000125581284172239382740000012217132944556885404_);" d="M2393.897,2316.975
					c-40.042,35.915-97.183,38.561-139.896,6.479l-1083.9-814.12c-15.995,14.37-26.238,36.076-26.238,60.469v1354.302
					c0,45.651,35.745,81.666,77.664,78.25l1934.964-157.651c37.704-3.073,66.852-37.191,66.852-78.251v-1124.16
					c0-20.181-7.082-38.578-18.66-52.509L2393.897,2316.975z"/>
			</g>
			
				<linearGradient id="SVGID_00000087399901762827541790000001889797243574448306_" gradientUnits="userSpaceOnUse" x1="1958.5398" y1="1904.7913" x2="3112.4607" y2="113.6316">
				<stop  offset="0" style="stop-color:#FFC444"/>
				<stop  offset="0.9964" style="stop-color:#F36F56"/>
			</linearGradient>
			<path style="fill:url(#SVGID_00000087399901762827541790000001889797243574448306_);" d="M2393.897,2316.975l810.787-727.192
				c-12.681-15.259-30.765-25.153-51.107-25.914l-1934.965-72.489c-18.411-0.689-35.393,6.167-48.511,17.954l1083.9,814.12
				C2296.714,2355.535,2353.854,2352.889,2393.897,2316.975z"/>
			
				<linearGradient id="SVGID_00000168098019500480797460000000053017625273005236_" gradientUnits="userSpaceOnUse" x1="2205.3748" y1="1745.0712" x2="2954.7141" y2="3404.6814">
				<stop  offset="0" style="stop-color:#FFC444"/>
				<stop  offset="0.9964" style="stop-color:#F36F56"/>
			</linearGradient>
			<path style="opacity:0.37;fill:url(#SVGID_00000168098019500480797460000000053017625273005236_);" d="M3204.683,1589.782
				l-810.787,727.192c-40.042,35.915-97.183,38.561-139.896,6.479l-1083.9-814.12c-15.995,14.37-26.238,36.076-26.238,60.469
				v199.733c39.161-17.873,72.298-21.302,99.234-18.858c74.466,6.756,92.247,57.238,234.834,130.114
				c133.319,68.139,147.307,39.099,206.078,88.478c113.226,95.131,63.71,204.931,162.945,307.068
				c103.337,106.357,192.498,23.799,340.269,124.909c156.149,106.843,106.162,232.948,234.833,307.068
				c180.271,103.843,364.356-94.158,517.592,10.408c46.332,31.617,75.955,81.443,95.052,135.905l121.79-9.923
				c37.704-3.073,66.852-37.191,66.852-78.251v-1124.16C3223.344,1622.11,3216.261,1603.714,3204.683,1589.782z"/>
		</g>
		<g>
			
				<linearGradient id="SVGID_00000144336498399830255330000011197708424580168836_" gradientUnits="userSpaceOnUse" x1="2600.2334" y1="827.6409" x2="2737.373" y2="1089.0629">
				<stop  offset="0" style="stop-color:#311944"/>
				<stop  offset="1" style="stop-color:#6B3976"/>
			</linearGradient>
			<path style="fill:url(#SVGID_00000144336498399830255330000011197708424580168836_);" d="M2367.738,1392.234l85.02-119.694
				c11.946-16.819,18.365-37.181,18.365-58.27V958.49c0-23.762,19.434-42.275,42.754-40.703l670.445,45.169
				c22.83,1.538,40.852,20.807,40.852,43.702v387.055c0,23.47-18.904,41.871-42.326,41.225l-810.806-22.357l-3.579-4.393
				C2364.676,1403.54,2364.378,1396.964,2367.738,1392.234z"/>
			
				<linearGradient id="SVGID_00000005954909193715329890000014842315599277532819_" gradientUnits="userSpaceOnUse" x1="2808.459" y1="1207.8452" x2="3062.9624" y2="2036.0579">
				<stop  offset="0" style="stop-color:#FF9085"/>
				<stop  offset="1" style="stop-color:#FB6FBB"/>
			</linearGradient>
			<path style="fill:url(#SVGID_00000005954909193715329890000014842315599277532819_);" d="M2371.93,1412.735l99.204-139.596
				c11.958-16.826,18.383-37.198,18.383-58.296v-255.9c0-23.773,19.451-42.294,42.794-40.722l671.075,45.198
				c22.852,1.539,40.89,20.817,40.89,43.723v387.238c0,23.481-18.922,41.891-42.366,41.244L2371.93,1412.735z"/>
			<path style="fill:#FFFFFF;" d="M2553.878,1306.066c0-84.679,0-169.358,0-254.038c14.634,0.728,29.279,1.456,43.934,2.186
				c11.534,31.404,23.075,62.633,34.623,93.686c9.902,26.799,19.812,58.274,27.246,86.603c0.248,0.006,0.496,0.011,0.744,0.016
				c-2.478-33.045-3.222-66.829-3.222-104.287c0-24.354,0-48.709,0-73.063c11.568,0.576,23.144,1.151,34.727,1.728
				c0,82.867,0,165.735,0,248.603c-13.237-0.138-26.464-0.275-39.683-0.413c-11.889-32.281-23.771-64.752-35.647-97.413
				c-9.89-27.112-20.766-60.019-28.917-89.974c-0.247,0.115-0.494,0.23-0.741,0.345c0.989,33.414,1.483,69.038,1.482,110.276
				c0,25.368,0,50.735,0,76.104C2576.902,1306.305,2565.386,1306.186,2553.878,1306.066z"/>
			<path style="fill:#FFFFFF;" d="M2824.689,1205.969c-20.65-0.558-41.28-1.116-61.887-1.673c0,19.451,0,38.902,0,58.353
				c23.018,0.407,46.064,0.815,69.135,1.223c0,15.028,0,30.056,0,45.084c-35.804-0.372-71.543-0.744-107.218-1.114
				c0-82.437,0-164.875,0-247.312c34.513,1.717,69.086,3.438,103.719,5.161c0,15.037,0,30.073,0,45.11
				c-21.903-0.93-43.781-1.859-65.636-2.787c0,17.019,0,34.039,0,51.059c20.608,0.706,41.237,1.413,61.887,2.121
				C2824.689,1176.118,2824.689,1191.044,2824.689,1205.969z"/>
			<path style="fill:#FFFFFF;" d="M2887.011,1309.528c-13.367-80.42-26.725-161.392-40.074-242.918
				c13.6,0.677,27.208,1.354,40.826,2.031c4.263,33.336,8.526,66.599,12.792,99.789c3.763,28.663,7.276,59.749,10.036,84.015
				c0.167,0.003,0.335,0.007,0.503,0.01c2.76-25.939,6.777-54.662,11.047-84.013c4.773-32.54,9.547-64.999,14.322-97.378
				c13.576,0.675,27.162,1.351,40.757,2.028c4.533,33.57,9.067,67.061,13.603,100.472c3.78,27.886,6.557,53.231,9.075,79.596
				c0.168,0.003,0.337,0.007,0.505,0.01c2.522-26.266,6.301-53.867,9.834-81.765c4.626-32.072,9.252-64.065,13.88-95.98
				c13.046,0.649,26.102,1.299,39.165,1.948c-14.665,77.237-29.318,155.08-43.961,233.528c-13.875-0.144-27.741-0.288-41.597-0.432
				c-4.785-34.088-9.569-68.26-14.352-102.518c-3.27-24.09-6.038-46.443-8.052-73.739c-0.167-0.006-0.335-0.013-0.503-0.02
				c-3.018,26.746-5.784,49.292-9.807,73.257c-5.363,34.076-10.726,68.246-16.086,102.513
				C2914.944,1309.819,2900.972,1309.673,2887.011,1309.528z"/>
			<path style="fill:#FFFFFF;" d="M3082.507,1257.232c10.382,7.479,26.345,14.99,42.831,15.265
				c17.769,0.292,27.164-9.463,27.165-24.497c0.001-14.361-8.129-22.735-28.687-33.255c-28.395-14.137-46.879-36.218-46.877-70.189
				c0-39.907,24.311-69.169,64.645-67.051c19.306,0.978,33.544,7.157,43.72,13.763c-2.884,13.8-5.767,27.623-8.65,41.467
				c-6.865-4.703-19.069-11.71-35.832-12.439c-16.753-0.732-24.87,9.241-24.868,21.293c0,14.793,9.64,21.717,31.726,33.757
				c30.247,16.104,44.497,37.517,44.499,69.769c-0.001,38.304-22.134,70.666-69.121,70.302
				c-19.526-0.182-38.778-7.275-48.395-14.681C3077.275,1286.215,3079.89,1271.713,3082.507,1257.232z"/>
		</g>
		<g>
			
				<linearGradient id="SVGID_00000014613704686961049790000010213315505885974965_" gradientUnits="userSpaceOnUse" x1="1794.8105" y1="2547.1321" x2="1852.7329" y2="2473.7888">
				<stop  offset="0" style="stop-color:#AA80F9"/>
				<stop  offset="0.9964" style="stop-color:#6165D7"/>
			</linearGradient>
			<path style="fill:url(#SVGID_00000014613704686961049790000010213315505885974965_);" d="M1941.345,2664.163
				c31.476-17.445,22.262-116.451-20.442-186.02c-60.635-98.781-193.527-145.938-220.772-116.518
				c-27.882,30.108,52.377,143.132,65.415,161.49C1812.84,2589.717,1904.113,2684.799,1941.345,2664.163z"/>
			
				<linearGradient id="SVGID_00000088819462631652014350000011075298864507957422_" gradientUnits="userSpaceOnUse" x1="1238.6075" y1="3231.8188" x2="1333.8907" y2="3231.8188" gradientTransform="matrix(-0.9294 0.369 0.369 0.9294 2317.0188 -232.6526)">
				<stop  offset="0" style="stop-color:#444B8C"/>
				<stop  offset="0.9964" style="stop-color:#26264F"/>
			</linearGradient>
			<path style="fill:url(#SVGID_00000088819462631652014350000011075298864507957422_);" d="M2270.504,3238.799
				c-5.133,7.095-5.156,19.122,0.57,24.416c5.626,5.204,12.661,0.062,34.028-1.647c22.887-1.829,29.436,2.902,44.468-3.082
				c6.073-2.421,16.672-7.838,15.969-12.287c-0.494-3.129-6.304-4.133-25.806-8.363c-27.682-6.004-27.619-6.506-33.391-6.819
				C2291.841,3230.224,2277.283,3229.43,2270.504,3238.799z"/>
			
				<linearGradient id="SVGID_00000003805358720303011800000014626597273125102477_" gradientUnits="userSpaceOnUse" x1="1065.9347" y1="3229.6675" x2="1106.1127" y2="3146.5085" gradientTransform="matrix(-0.9527 0.304 0.304 0.9527 2337.1311 -152.086)">
				<stop  offset="0" style="stop-color:#FFC444"/>
				<stop  offset="0.9964" style="stop-color:#F36F56"/>
			</linearGradient>
			<path style="fill:url(#SVGID_00000003805358720303011800000014626597273125102477_);" d="M2281.023,3199.982l15.632,36.8
				c-0.641,2.137-11.522,10.228-21.98,7.012l-21.06-35.069L2281.023,3199.982z"/>
			
				<linearGradient id="SVGID_00000082355298501367794870000015539133380841410469_" gradientUnits="userSpaceOnUse" x1="1387.8788" y1="3225.6816" x2="1483.162" y2="3225.6816" gradientTransform="matrix(-0.9294 0.369 0.369 0.9294 2317.0188 -232.6526)">
				<stop  offset="0" style="stop-color:#444B8C"/>
				<stop  offset="0.9964" style="stop-color:#26264F"/>
			</linearGradient>
			<path style="fill:url(#SVGID_00000082355298501367794870000015539133380841410469_);" d="M2129.507,3288.175
				c-5.133,7.097-5.156,19.123,0.569,24.418c5.627,5.205,12.662,0.062,34.028-1.648c22.887-1.83,29.437,2.902,44.468-3.082
				c6.073-2.421,16.672-7.837,15.969-12.288c-0.493-3.128-6.304-4.132-25.806-8.362c-27.683-6.004-27.618-6.506-33.391-6.821
				C2150.844,3279.602,2136.285,3278.807,2129.507,3288.175z"/>
			
				<linearGradient id="SVGID_00000145765357263114702460000016763018172692745918_" gradientUnits="userSpaceOnUse" x1="1215.2659" y1="3233.8462" x2="1255.4435" y2="3150.6875" gradientTransform="matrix(-0.9527 0.304 0.304 0.9527 2337.1311 -152.086)">
				<stop  offset="0" style="stop-color:#FFC444"/>
				<stop  offset="0.9964" style="stop-color:#F36F56"/>
			</linearGradient>
			<path style="fill:url(#SVGID_00000145765357263114702460000016763018172692745918_);" d="M2140.026,3249.359l15.633,36.8
				c-0.64,2.137-11.522,10.227-21.98,7.012l-21.059-35.069L2140.026,3249.359z"/>
			
				<linearGradient id="SVGID_00000008831430431575164930000012790489056787502736_" gradientUnits="userSpaceOnUse" x1="1470.8202" y1="2897.3628" x2="1708.5272" y2="2596.3701">
				<stop  offset="0" style="stop-color:#AA80F9"/>
				<stop  offset="0.9964" style="stop-color:#6165D7"/>
			</linearGradient>
			<path style="fill:url(#SVGID_00000008831430431575164930000012790489056787502736_);" d="M1447.674,2368.028
				c36.519-12.446,92.33-26.908,161.071-26.9c77.395,0.009,139.551,0.016,182.468,36.595c104.16,88.778-12.422,301.419,47.3,458.89
				c6.541,17.248,25.576,71.928,9.02,130.903c-3.051,10.87-9.335,20.29-20.081,36.236
				c-63.091,93.602-243.803,124.401-324.986,43.247c-42.906-42.891-77.988-58.164-79.021-107.104
				C1419.374,2746.714,1449.347,2554.022,1447.674,2368.028z"/>
			
				<linearGradient id="SVGID_00000121257818433286570530000011905660284378448058_" gradientUnits="userSpaceOnUse" x1="1470.8458" y1="2887.9712" x2="1700.7747" y2="2596.8276">
				<stop  offset="0" style="stop-color:#AA80F9"/>
				<stop  offset="0.9964" style="stop-color:#6165D7"/>
			</linearGradient>
			<path style="opacity:0.3;fill:url(#SVGID_00000121257818433286570530000011905660284378448058_);" d="M1488.858,2604.023
				c-14.754-40.394,0.534-86.634-32.361-106.819c-12.054-7.396-27.036-10.531-43.355-10.172
				c1.953,141.986,4.747,283.836,8.201,432.016c1.141,48.941,7.26,51.364,54.702,94.255c54.969,49.696,149.697,65.919,230.945,49.66
				c-106.408-65.44-182.33-133.227-171.457-191.331c12.663-67.667,136.581-87.649,131.595-135.759
				C1661.843,2684.885,1521.109,2692.329,1488.858,2604.023z"/>
			
				<linearGradient id="SVGID_00000102512236258907925230000009514123210884906657_" gradientUnits="userSpaceOnUse" x1="1339.2183" y1="2768.5754" x2="1575.3207" y2="2469.6147">
				<stop  offset="0" style="stop-color:#AA80F9"/>
				<stop  offset="0.9964" style="stop-color:#6165D7"/>
			</linearGradient>
			<path style="fill:url(#SVGID_00000102512236258907925230000009514123210884906657_);" d="M1481.516,2372.396
				c-35.773-24.152-121.964,36.756-169.743,90.369c-22.207,24.916-99.525,111.669-80.315,228.207
				c3.129,18.991,17.543,107.781,93.551,151.274c68.055,38.943,159.95,28.926,233.578-26.228
				c10.06-8.929,20.124-17.854,30.187-26.784c9.899-10.7,19.799-21.399,29.698-32.1c-15.561-12.944-42.001-31.617-79.133-43.598
				c-56.581-18.257-93.78,8.83-107.312-9.002c-16.661-21.954,34.06-62.858,47.369-155.914
				C1482.986,2523.509,1521.476,2399.374,1481.516,2372.396z"/>
			
				<linearGradient id="SVGID_00000098198639655561230910000002411444228990399141_" gradientUnits="userSpaceOnUse" x1="1344.6964" y1="3075.1123" x2="1664.8168" y2="2669.7654" gradientTransform="matrix(0.994 -0.1094 0.1094 0.994 171.165 314.9103)">
				<stop  offset="0" style="stop-color:#444B8C"/>
				<stop  offset="0.9964" style="stop-color:#26264F"/>
			</linearGradient>
			<path style="fill:url(#SVGID_00000098198639655561230910000002411444228990399141_);" d="M1554.296,3000.619
				c-15.078,79.058,25.006,43.179,108.806-10.231c88.258-56.252,284.981-144.738,382.402-67.933
				c72.557,57.203,37.46,164.145,151.087,265.094c20.015,17.782,38.443,29.712,49.891,36.552
				c17.422-9.563,34.843-19.124,52.264-28.688c2.556-42.61,7.362-206.315-110.007-339.535
				c-28.377-32.208-82.422-94.094-165.404-113.655C1798.994,2689.342,1568.2,2927.705,1554.296,3000.619z"/>
			
				<linearGradient id="SVGID_00000132769769022335605420000016431053921680807097_" gradientUnits="userSpaceOnUse" x1="1535.3145" y1="2700.7317" x2="1163.9147" y2="3112.1287" gradientTransform="matrix(0.994 -0.1094 0.1094 0.994 171.165 314.9103)">
				<stop  offset="0" style="stop-color:#444B8C"/>
				<stop  offset="0.9964" style="stop-color:#26264F"/>
			</linearGradient>
			<path style="fill:url(#SVGID_00000132769769022335605420000016431053921680807097_);" d="M1460.286,2938.758
				c-10.377,45.598,8.874,94.57,37.184,123.195c62.844,63.544,185.912,42.581,260.455,8.352
				c90.7-41.647,105.455-100.932,144.019-91.005c59.925,15.425,34.59,161.594,151.088,265.094
				c20.015,17.781,38.443,29.709,49.891,36.552c17.42-9.565,34.843-19.126,52.263-28.69c3.063-98.904-15.602-175.823-31.588-224.508
				c-18.332-55.829-34.754-105.844-80.462-150.791c-56.789-55.843-124.543-70.191-163.36-77.889
				C1715.549,2766.495,1487.247,2820.282,1460.286,2938.758z"/>
			<g>
				
					<linearGradient id="SVGID_00000116215149637211456860000018226873179027146632_" gradientUnits="userSpaceOnUse" x1="1819.7609" y1="2967.0068" x2="1767.6163" y2="2819.2637">
					<stop  offset="0" style="stop-color:#311944"/>
					<stop  offset="1" style="stop-color:#893976"/>
				</linearGradient>
				<polygon style="fill:url(#SVGID_00000116215149637211456860000018226873179027146632_);" points="1971.256,2788.797 
					1540.2,2782.362 1654.824,2837.681 1972.359,2816.9 				"/>
				
					<linearGradient id="SVGID_00000031171888320357553980000010036311928877750678_" gradientUnits="userSpaceOnUse" x1="1591.965" y1="2752.9495" x2="1611.0847" y2="2885.0493">
					<stop  offset="0" style="stop-color:#311944"/>
					<stop  offset="1" style="stop-color:#893976"/>
				</linearGradient>
				<path style="fill:url(#SVGID_00000031171888320357553980000010036311928877750678_);" d="M1524.987,2793.816v0.003
					c0,8.066,5.049,15.272,12.63,18.029l137.737,53.997l0.627-37.436l-135.781-46.047
					C1532.58,2780.172,1524.987,2785.891,1524.987,2793.816z"/>
			</g>
			<path style="fill:#FFFFFF;" d="M1586.527,2776.516c-2.645-0.59,12.889-31.542,25.084-27.97
				c12.192,3.573,71.834,38.137,77.255,52.371c5.422,14.232,5.422,14.232,5.422,14.232s-26.016,2.033-42.152-3.388
				C1636.002,2806.338,1608.041,2781.312,1586.527,2776.516z"/>
			<g>
				<g>
					
						<linearGradient id="SVGID_00000011740264607092520980000004242818735225096068_" gradientUnits="userSpaceOnUse" x1="1970.8113" y1="2764.5193" x2="1869.1487" y2="2620.1584">
						<stop  offset="0" style="stop-color:#444B8C"/>
						<stop  offset="0.9964" style="stop-color:#26264F"/>
					</linearGradient>
					<path style="fill:url(#SVGID_00000011740264607092520980000004242818735225096068_);" d="M1687.415,2565.75l-30.383,276.65
						c-1.049,9.546,12.315,23.768,21.908,23.313l445.735-27.364c7.325-0.348,13.422-5.738,14.662-12.965l55.946-267.195
						c1.67-9.723-15.808-19.765-25.672-19.49l-467.101,13.134C1694.708,2552.054,1688.267,2557.992,1687.415,2565.75z"/>
					
						<linearGradient id="SVGID_00000182486005258895399850000010232362843189008263_" gradientUnits="userSpaceOnUse" x1="1775.8042" y1="3003.4341" x2="1998.288" y2="2551.5144">
						<stop  offset="0" style="stop-color:#311944"/>
						<stop  offset="1" style="stop-color:#893976"/>
					</linearGradient>
					<path style="fill:url(#SVGID_00000182486005258895399850000010232362843189008263_);" d="M1697.602,2573.815l-30.386,276.653
						c-1.046,9.547,6.682,17.77,16.275,17.318l451.371-21.368c7.324-0.347,13.421-5.74,14.663-12.964l46.114-268.418
						c1.67-9.725-5.978-18.546-15.841-18.268l-467.102,13.134C1704.897,2560.119,1698.453,2566.06,1697.602,2573.815z"/>
				</g>
				
					<linearGradient id="SVGID_00000101785089898727900890000000244856180363040447_" gradientUnits="userSpaceOnUse" x1="1667.1213" y1="2713.3772" x2="2155.8887" y2="2713.3772">
					<stop  offset="0" style="stop-color:#311944"/>
					<stop  offset="1" style="stop-color:#893976"/>
				</linearGradient>
				<path style="opacity:0.3;fill:url(#SVGID_00000101785089898727900890000000244856180363040447_);" d="M1962.648,2781.591
					c-39.412-16.704-25.501-48.56-72.042-88.252c-61.398-52.365-123.98-29.656-145.888-70.243
					c-6.821-12.641-10.081-32.311,1.803-64.146l-33.825,0.95c-7.799,0.218-14.243,6.159-15.094,13.914l-30.386,276.653
					c-1.045,9.545,6.683,17.77,16.275,17.318l451.371-21.368c7.324-0.347,13.421-5.737,14.663-12.964l6.363-37.04
					c-13.696-7.622-30.061-14.552-49.156-18.425C2040.512,2764.557,2008.023,2800.823,1962.648,2781.591z"/>
			</g>
			<g>
				<path style="fill:#FFFFFF;" d="M1615.972,2235.389c0.24,28.693-2.961,51.448-5.989,67.031
					c-3.469,17.855-5.968,22.467-9.158,26.21c-4.802,5.635-12.079,10.361-53.193,20.556c-22.374,5.546-25.252,5.396-25.747,7.616
					c-2.41,10.831,58.6,47.746,121.63,38.85c38.576-5.445,73.674-27.453,71.52-39.011c-2.168-11.631-40.702-5.39-52.187-26.432
					c-7.989-14.639,0.967-35.419,11.553-52.629C1664.147,2258.369,1626.223,2254.6,1615.972,2235.389z"/>
				<g>
					
						<linearGradient id="SVGID_00000101792900702023149720000015118920334663805605_" gradientUnits="userSpaceOnUse" x1="384.8777" y1="2109.3525" x2="311.9023" y2="1924.0082" gradientTransform="matrix(-0.9687 -0.2485 -0.2485 0.9687 2456.1904 427.3052)">
						<stop  offset="0" style="stop-color:#311944"/>
						<stop  offset="1" style="stop-color:#6B3976"/>
					</linearGradient>
					<path style="fill:url(#SVGID_00000101792900702023149720000015118920334663805605_);" d="M1696.922,2271.873
						c11.858-9.408,17.723-29.698,10.934-45.257c-5.841-13.388-19.175-18.552-27.158-21.648
						c-23.132-8.964-55.815-6.846-71.999,12.378c-9.59,11.393-3.213,41.914-2.377,47.32c0.948,6.115,4.769,9.123,7.677,14.315
						c4.03,7.203,10.301,18.618,20.442,37.618c2.275-4.235,5.402-9.396,9.635-14.771c1.629-2.069,8.104-10.12,16.278-16.066
						C1676.731,2273.841,1685.682,2280.791,1696.922,2271.873z"/>
					<path style="fill:#FFFFFF;" d="M1617.64,2298.466c0,0,8.98,29.805,40.724,35.904c28.422,5.46,48.838-56.15,34.452-74.101
						c-4.801-5.987-16.249-10.936-26.654-10.744c-6.146,0.114-8.706,1.988-18.752,1.978c-9.268-0.008-11.468-1.609-14.663-0.087
						c-3.996,1.906-8.158,8.042-7.457,27.79c-3.927-6.787-9.787-10.526-14.88-9.566c-0.813,0.155-3.071,0.959-4.666,2.656
						C1599.972,2278.437,1604.13,2289.282,1617.64,2298.466z"/>
					
						<linearGradient id="SVGID_00000101061347266166638810000011058486657764226698_" gradientUnits="userSpaceOnUse" x1="362.5811" y1="2118.2246" x2="289.5347" y2="1932.6998" gradientTransform="matrix(-0.9687 -0.2485 -0.2485 0.9687 2456.1904 427.3052)">
						<stop  offset="0" style="stop-color:#311944"/>
						<stop  offset="1" style="stop-color:#6B3976"/>
					</linearGradient>
					<path style="fill:url(#SVGID_00000101061347266166638810000011058486657764226698_);" d="M1632.459,2247.338
						c1.087,1.355-4.343,5.312-6.504,12.348c-4.196,13.659,5.469,33.885,19.368,39.007c8.217,3.028,11.861-1.452,26.186,0.706
						c8.869,1.336,15.77,4.306,20.033,6.47c0.435,16.294-7.622,30.328-19.575,34.699c-12.869,4.706-25.605-3.5-30.93-6.931
						c-3.561-2.295-14.983-9.622-18.526-22.769c-3.69-13.701,4.852-19.154-0.845-29.253c-2.873-5.094-7.58-8.202-10.558-17.391
						c-0.809-2.496-1.228-4.627-1.453-6.046C1618.857,2252.416,1630.887,2245.374,1632.459,2247.338z"/>
					<path style="fill:#FFFFFF;" d="M1679.934,2308.845c0,0-6.858,1.581-17.135-1.721c-0.5-0.163-1.099-0.159-1.231,0.088
						c-0.497,0.927,5.039,7.105,11.655,6.979c4.699-0.092,9.185-3.348,8.871-4.556
						C1681.959,2309.125,1680.954,2308.925,1679.934,2308.845z"/>
				</g>
			</g>
		</g>
	</g>
</g>
</svg>
