<?xml version="1.0" standalone="no"?>
<!DOCTYPE svg PUBLIC "-//W3C//DTD SVG 20010904//EN"
 "http://www.w3.org/TR/2001/REC-SVG-20010904/DTD/svg10.dtd">
<svg version="1.0" xmlns="http://www.w3.org/2000/svg"
 width="320.000000pt" height="321.000000pt" viewBox="0 0 320.000000 321.000000"
 preserveAspectRatio="xMidYMid meet">

<g transform="translate(0.000000,321.000000) scale(0.100000,-0.100000)"
fill="#000000" stroke="none">
<path d="M1692 3084 c-70 -18 -107 -38 -168 -89 -46 -40 -80 -86 -259 -350
-34 -49 -72 -96 -86 -102 -17 -9 -89 -13 -240 -13 -119 0 -219 -3 -222 -7 -4
-3 -2 -12 4 -19 9 -10 7 -15 -5 -20 -18 -7 -22 -30 -6 -36 18 -6 29 -122 24
-241 -3 -62 -6 -141 -7 -175 l-3 -64 24 27 c29 34 40 27 12 -8 -26 -32 -26
-45 0 -22 11 10 20 13 20 7 0 -13 -40 -43 -50 -37 -4 3 -6 -7 -4 -21 1 -15 -4
-28 -12 -31 -8 -3 -14 -14 -14 -25 0 -10 -4 -16 -10 -13 -6 3 -10 -3 -10 -15
0 -11 -7 -23 -15 -26 -8 -4 -13 -10 -10 -14 3 -4 -2 -13 -10 -20 -8 -7 -15 -9
-15 -5 0 4 -7 2 -15 -5 -8 -7 -15 -17 -15 -23 0 -6 7 -2 15 9 8 10 15 16 15
13 0 -11 -157 -239 -162 -234 -3 3 -5 -1 -5 -7 0 -17 -85 -152 -165 -263 -121
-169 -148 -233 -148 -357 0 -219 168 -412 384 -439 39 -5 91 -6 115 -3 35 5
47 3 56 -10 11 -15 13 -15 19 -1 3 8 12 15 20 15 10 0 13 -6 10 -15 -4 -10 0
-15 11 -15 13 0 15 -6 10 -32 -5 -25 -4 -29 4 -18 9 12 11 10 12 -10 1 -14 1
-29 0 -33 -1 -4 7 -4 17 2 14 7 18 6 18 -10 0 -10 -4 -19 -8 -19 -4 0 -8 -7
-8 -15 0 -9 6 -12 15 -9 8 4 15 1 15 -7 0 -7 -3 -9 -7 -6 -3 4 -12 2 -20 -4
-10 -9 -13 -6 -13 14 0 14 -4 29 -10 32 -5 3 -10 1 -10 -4 0 -6 -5 -11 -11
-11 -5 0 -7 5 -4 10 3 6 1 10 -5 10 -6 0 -8 5 -4 12 4 7 3 8 -4 4 -17 -10 5
-49 24 -42 8 3 14 1 14 -3 0 -5 -4 -11 -10 -13 -5 -1 0 -14 11 -28 12 -14 18
-19 14 -12 -3 6 -4 12 0 12 3 0 10 -11 15 -25 12 -32 28 -32 40 0 12 33 15 32
15 -7 0 -27 -4 -32 -20 -30 -15 3 -13 -1 10 -19 59 -45 59 -45 51 -32 -5 9 -2
11 8 7 9 -3 14 -11 13 -17 -1 -6 27 -22 63 -35 124 -45 289 -25 394 48 51 35
200 193 375 398 29 34 62 67 72 72 9 6 116 24 236 41 228 32 255 36 263 39 3
1 16 2 30 1 14 -1 32 3 40 9 13 9 13 12 0 23 -19 15 -14 61 6 53 8 -3 14 -1
14 4 0 6 -6 10 -14 10 -15 0 -26 30 -26 77 0 17 -5 33 -10 35 -6 2 -12 46 -15
98 -2 54 -8 96 -14 98 -19 6 -12 58 11 78 12 10 18 13 13 5 -5 -10 -4 -12 4
-7 6 4 9 12 5 17 -7 12 15 41 26 34 4 -3 10 5 13 16 4 14 10 18 19 13 7 -4 10
-4 6 1 -11 11 31 67 44 59 6 -4 8 -2 5 3 -8 12 60 89 74 85 5 -1 8 4 7 10 -2
7 3 12 10 10 6 -1 11 2 10 7 -2 5 27 44 64 87 37 44 82 98 100 121 18 23 68
81 111 129 105 117 139 191 145 306 5 107 -18 194 -77 286 -45 69 -95 110
-191 156 -63 30 -70 31 -240 36 -96 3 -184 10 -194 15 -14 6 -17 5 -12 -3 5
-8 -4 -12 -28 -12 -19 0 -37 4 -40 9 -9 14 20 32 40 25 15 -5 16 -4 5 4 -13 9
-13 13 0 29 13 17 13 17 -6 3 -10 -8 -27 -23 -37 -32 -10 -10 -28 -18 -40 -17
-23 0 -23 0 -2 9 20 8 20 12 12 70 -8 50 -7 65 4 71 11 7 11 9 0 9 -19 0 -39
23 -34 38 2 6 -1 12 -6 12 -6 0 -12 -8 -15 -17 -2 -10 -4 -1 -4 20 l-1 37 21
-27 c34 -46 40 -50 32 -24 -6 19 -4 23 9 18 8 -3 18 -2 21 3 4 6 2 10 -4 10
-5 0 -12 10 -14 23 l-4 22 -2 -23 c-1 -32 -22 -24 -42 16 -9 17 -19 29 -23 27
-3 -3 -4 -2 -1 2 3 3 0 12 -6 19 -12 15 -5 44 10 44 5 0 7 -9 4 -20 -3 -13 1
-22 11 -26 11 -4 15 -13 11 -28 -5 -17 -4 -18 5 -6 9 12 10 11 5 -7 -4 -14 -2
-23 5 -23 6 0 9 4 5 9 -3 5 -1 12 5 16 6 4 5 12 -5 21 -8 9 -13 19 -10 24 3 4
-16 31 -41 59 -48 53 -113 106 -100 80 4 -7 1 -6 -7 3 -8 10 -17 15 -20 11 -4
-3 -7 -1 -7 5 0 6 -30 20 -66 32 -77 23 -174 25 -252 4z m432 -162 c-17 -16
-18 -16 -11 1 4 10 2 28 -4 40 -11 22 -11 22 10 -1 21 -21 21 -23 5 -40z m-31
13 c-3 -9 -8 -14 -10 -11 -3 3 -2 9 2 15 9 16 15 13 8 -4z m-42 -279 c2 -2 3
-81 1 -174 l-3 -170 -134 -4 c-177 -4 -179 -5 -183 -153 l-4 -105 161 0 161 0
-1 -27 c0 -16 -8 -107 -17 -203 l-17 -175 -147 -3 -148 -3 -2 -502 -3 -502
-202 -3 -203 -2 0 504 0 505 -102 3 -103 3 -3 203 -2 202 98 0 99 0 6 138 c7
195 45 295 142 380 85 75 152 90 406 91 108 1 198 -1 200 -3z m-1284 -303 c-3
-10 -5 -4 -5 12 0 17 2 24 5 18 2 -7 2 -21 0 -30z m1543 -1259 c0 -8 -19 -13
-24 -6 -3 5 1 9 9 9 8 0 15 -2 15 -3z m17 -96 c-2 -13 -4 -3 -4 22 0 25 2 35
4 23 2 -13 2 -33 0 -45z m48 -198 c3 -5 1 -10 -4 -10 -6 0 -11 5 -11 10 0 6 2
10 4 10 3 0 8 -4 11 -10z m14 -82 c12 -15 11 -18 -3 -18 -10 0 -16 8 -16 22 0
12 1 19 3 17 1 -2 9 -12 16 -21z m-1584 -274 c10 -4 13 -9 6 -13 -7 -5 -6 -16
4 -34 8 -15 10 -25 5 -22 -6 4 -10 -2 -11 -12 0 -11 -4 -8 -9 9 -5 16 -7 36
-6 45 2 10 -2 21 -8 25 -14 9 -3 10 19 2z m35 -194 c0 -5 -2 -10 -4 -10 -3 0
-8 5 -11 10 -3 6 -1 10 4 10 6 0 11 -4 11 -10z"/>
<path d="M2244 2735 c-3 -8 -4 -20 -2 -27 3 -7 7 -1 10 15 6 29 1 36 -8 12z"/>
<path d="M2259 2671 c5 -9 6 -23 3 -31 -5 -16 -4 -15 18 14 13 17 13 18 1 11
-11 -6 -13 -4 -9 7 4 8 0 15 -7 15 -9 0 -11 -6 -6 -16z"/>
<path d="M685 2520 c3 -5 8 -10 11 -10 2 0 4 5 4 10 0 6 -5 10 -11 10 -5 0 -7
-4 -4 -10z"/>
<path d="M510 2480 c-9 -6 -10 -10 -3 -10 6 0 15 5 18 10 8 12 4 12 -15 0z"/>
<path d="M505 2450 c-3 -6 1 -7 9 -4 18 7 21 14 7 14 -6 0 -13 -4 -16 -10z"/>
<path d="M702 2370 c1 -43 14 -46 16 -4 2 19 -2 34 -7 34 -5 0 -9 -14 -9 -30z"/>
<path d="M703 2060 c0 -25 2 -35 4 -22 2 12 2 32 0 45 -2 12 -4 2 -4 -23z"/>
<path d="M2526 1362 c-2 -4 2 -16 10 -27 8 -10 14 -14 14 -8 0 7 -5 15 -10 18
-6 4 -8 11 -5 16 4 5 4 9 1 9 -3 0 -7 -3 -10 -8z"/>
<path d="M2393 1020 c0 -25 2 -35 4 -22 2 12 2 32 0 45 -2 12 -4 2 -4 -23z"/>
<path d="M2410 751 c0 -6 5 -13 10 -16 6 -3 10 1 10 9 0 9 -4 16 -10 16 -5 0
-10 -4 -10 -9z"/>
<path d="M2440 710 c0 -5 5 -10 10 -10 6 0 10 5 10 10 0 6 -4 10 -10 10 -5 0
-10 -4 -10 -10z"/>
<path d="M737 404 c3 -7 9 -14 14 -14 14 0 10 17 -5 23 -10 4 -13 1 -9 -9z"/>
<path d="M731 364 c0 -11 3 -14 6 -6 3 7 2 16 -1 19 -3 4 -6 -2 -5 -13z"/>
<path d="M750 365 c0 -8 4 -15 10 -15 5 0 7 7 4 15 -4 8 -8 15 -10 15 -2 0 -4
-7 -4 -15z"/>
</g>
</svg>
