<?xml version="1.0" encoding="utf-8"?>
<!-- Generator: Adobe Illustrator 27.5.0, SVG Export Plug-In . SVG Version: 6.00 Build 0)  -->
<svg version="1.1" xmlns="http://www.w3.org/2000/svg" xmlns:xlink="http://www.w3.org/1999/xlink" x="0px" y="0px"
	 viewBox="0 0 1122 1122" style="enable-background:new 0 0 1122 1122;" xml:space="preserve">
<g id="Bg">
	<g>
		<g>
			<rect style="fill:#FFFFFF;" width="1122" height="1122"/>
		</g>
	</g>
</g>
<g id="Object">
	<g>
		<path style="fill:#616E7D;" d="M250.506,295.758c-10.195,0-18.451,8.27-18.451,18.474v382.066
			c0,10.195,8.256,18.453,18.451,18.453h620.971c10.192,0,18.471-8.258,18.471-18.453V314.232c0-10.204-8.28-18.474-18.471-18.474
			H250.506z M846.458,673.437H274.321V335.874h572.137V673.437z"/>
		<path style="fill:#616E7D;" d="M883.351,722.725H238.647c-4.258,0-8.394,1.683-11.699,4.799l-64.95,61.075
			c-13.442,12.621-5.683,37.644,11.681,37.644h774.648c17.357,0,25.116-25.022,11.68-37.644l-64.974-61.075
			C891.752,724.407,887.612,722.725,883.351,722.725z"/>
		<path style="fill:#FFFFFF;" d="M846.458,673.437V335.874H274.321v337.562H846.458z M554.882,552.102H431.041v-15.39h123.841
			V552.102z M695.589,636.937H562.644V625.26h132.945V636.937z M817.929,616.893H562.644v-11.668h255.285V616.893z M817.929,596.848
			H562.644v-11.656h255.285V596.848z M817.929,576.828H562.644v-11.68h255.285V576.828z M562.644,552.102v-15.39h123.862v15.39
			H562.644z M818.11,552.102H694.248v-15.39H818.11V552.102z M299.437,364.543H818.11v158.313H299.437V364.543z M299.437,536.712
			h123.846v15.39H299.437V536.712z M299.437,566.049h255.291v77.735H299.437V566.049z"/>
		<rect x="299.437" y="364.543" style="fill:#AAD4C8;" width="518.674" height="158.313"/>
		<rect x="299.437" y="536.712" style="fill:#82BFAB;" width="123.846" height="15.39"/>
		<rect x="299.437" y="566.049" style="fill:#82BFAB;" width="255.291" height="77.735"/>
		<rect x="431.041" y="536.712" style="fill:#82BFAB;" width="123.841" height="15.39"/>
		<rect x="562.644" y="536.712" style="fill:#82BFAB;" width="123.862" height="15.39"/>
		<rect x="562.644" y="565.148" style="fill:#AAD4C8;" width="255.285" height="11.68"/>
		<rect x="562.644" y="585.192" style="fill:#AAD4C8;" width="255.285" height="11.656"/>
		<rect x="562.644" y="605.224" style="fill:#AAD4C8;" width="255.285" height="11.668"/>
		<rect x="562.644" y="625.26" style="fill:#AAD4C8;" width="132.945" height="11.678"/>
		<rect x="694.248" y="536.712" style="fill:#82BFAB;" width="123.862" height="15.39"/>
	</g>
</g>
</svg>
