<?xml version="1.0" standalone="no"?>
<!DOCTYPE svg PUBLIC "-//W3C//DTD SVG 20010904//EN"
 "http://www.w3.org/TR/2001/REC-SVG-20010904/DTD/svg10.dtd">
<svg version="1.0" xmlns="http://www.w3.org/2000/svg"
 width="1307.000000pt" height="980.000000pt" viewBox="0 0 1307.000000 980.000000"
 preserveAspectRatio="xMidYMid meet">

<g transform="translate(0.000000,980.000000) scale(0.100000,-0.100000)"
fill="#000000" stroke="none">
<path d="M8220 6990 c0 -5 5 -10 11 -10 5 0 7 5 4 10 -3 6 -8 10 -11 10 -2 0
-4 -4 -4 -10z"/>
<path d="M5032 6780 c0 -14 2 -19 5 -12 2 6 2 18 0 25 -3 6 -5 1 -5 -13z"/>
<path d="M4941 6774 c0 -11 3 -14 6 -6 3 7 2 16 -1 19 -3 4 -6 -2 -5 -13z"/>
<path d="M5444 6723 c-1 -16 1 -22 3 -15 3 8 11 5 24 -10 17 -20 19 -20 10 -3
-5 11 -15 28 -23 38 -12 16 -13 15 -14 -10z"/>
<path d="M4550 6703 c0 -14 -2 -15 -9 -5 -7 11 -9 11 -14 -1 -4 -10 0 -14 11
-13 15 3 32 36 18 36 -3 0 -6 -8 -6 -17z"/>
<path d="M4496 6693 c-6 -14 -5 -15 5 -6 7 7 10 15 7 18 -3 3 -9 -2 -12 -12z"/>
<path d="M5020 6699 c0 -5 5 -7 10 -4 6 3 10 8 10 11 0 2 -4 4 -10 4 -5 0 -10
-5 -10 -11z"/>
<path d="M5444 6677 c-3 -9 -4 -24 -1 -34 3 -11 5 -6 6 12 1 24 3 27 11 14 7
-12 5 -26 -5 -45 -10 -20 -15 -23 -15 -11 0 15 -14 17 -155 17 -117 0 -155 3
-155 13 0 8 -4 7 -10 -3 -5 -8 -10 -11 -10 -6 0 5 -6 4 -12 -2 -7 -5 -26 -10
-43 -10 -46 0 -51 -2 -35 -12 11 -8 7 -9 -15 -4 -16 4 -38 14 -47 22 -10 8
-18 12 -18 7 0 -4 8 -14 17 -21 16 -11 16 -13 -9 -19 -34 -9 -48 0 -48 30 0
13 -4 26 -8 29 -5 3 -7 -9 -6 -27 2 -18 1 -24 -2 -14 -5 15 -21 17 -145 17
-86 0 -139 4 -139 10 0 6 -14 10 -31 10 -17 0 -28 -4 -24 -10 5 -9 -44 -15
-81 -11 -7 1 -15 -6 -18 -15 -5 -14 -4 -15 9 -4 16 14 17 13 20 -42 1 -21 -2
-38 -6 -38 -5 0 -6 -7 -3 -15 4 -8 1 -15 -5 -15 -6 0 -11 5 -11 12 0 6 -3 8
-6 5 -10 -10 17 -38 35 -36 9 1 23 -1 32 -5 9 -4 237 -6 506 -4 466 3 492 4
512 22 12 11 21 24 21 30 0 6 -8 1 -18 -10 -23 -28 -61 -37 -79 -18 -16 15
-11 44 7 44 6 0 18 -7 27 -15 14 -14 13 -15 -12 -9 -20 5 -26 4 -21 -5 13 -20
62 -13 74 12 18 35 19 93 2 82 -6 -4 -7 1 -3 10 4 13 1 16 -18 13 -18 -2 -25
2 -27 19 -4 30 -30 50 -38 30z m52 -77 c8 0 14 -4 14 -10 0 -5 -9 -10 -19 -10
-23 0 -35 15 -25 32 6 9 9 9 12 0 2 -7 10 -12 18 -12z m-943 -7 c-7 -2 -21 -2
-30 0 -10 3 -4 5 12 5 17 0 24 -2 18 -5z m974 -35 c-3 -7 -5 -2 -5 12 0 14 2
19 5 13 2 -7 2 -19 0 -25z m-344 -45 c-101 -2 -265 -2 -365 0 -101 1 -19 2
182 2 201 0 283 -1 183 -2z m-628 -21 c-3 -3 -11 0 -18 7 -9 10 -8 11 6 5 10
-3 15 -9 12 -12z m533 1 c-21 -2 -57 -2 -80 0 -24 2 -7 4 37 4 44 0 63 -2 43
-4z"/>
<path d="M4908 6655 c2 -14 6 -25 8 -25 2 0 4 11 4 25 0 14 -4 25 -9 25 -4 0
-6 -11 -3 -25z"/>
<path d="M5490 6661 c0 -6 4 -13 10 -16 6 -3 7 1 4 9 -7 18 -14 21 -14 7z"/>
<path d="M8581 6584 c0 -11 3 -14 6 -6 3 7 2 16 -1 19 -3 4 -6 -2 -5 -13z"/>
<path d="M4425 6569 c-4 -11 -4 -23 -1 -26 3 -4 6 2 7 13 1 15 3 13 9 -6 8
-24 8 -23 9 8 1 36 -14 43 -24 11z"/>
<path d="M5551 6554 c0 -11 3 -14 6 -6 3 7 2 16 -1 19 -3 4 -6 -2 -5 -13z"/>
<path d="M6752 6198 c-9 -9 -12 -68 -12 -204 0 -162 3 -195 16 -208 14 -14
132 -16 1150 -16 764 0 1142 3 1155 10 18 10 19 23 19 208 0 141 -3 201 -12
210 -17 17 -2299 17 -2316 0z m2228 -68 c12 -7 16 -36 18 -129 3 -110 2 -121
-17 -140 -21 -21 -26 -21 -621 -21 -587 0 -600 0 -620 20 -18 18 -20 33 -20
128 0 81 4 113 16 130 l15 22 607 0 c364 0 613 -4 622 -10z m-2042 -137 l3
-113 -56 0 -55 0 0 116 0 115 53 -3 52 -3 3 -112z m220 0 l3 -113 -56 0 -55 0
0 108 c0 60 3 112 7 116 4 4 28 6 53 4 l45 -3 3 -112z m222 2 l0 -115 -55 0
-55 0 0 108 c0 60 3 112 7 115 3 4 28 7 55 7 l48 0 0 -115z m220 0 l0 -115
-55 0 -55 0 0 108 c0 60 3 112 7 115 3 4 28 7 55 7 l48 0 0 -115z"/>
<path d="M4996 5693 c6 -4 14 -15 17 -23 5 -11 6 -9 4 4 -1 11 -9 21 -17 23
-10 3 -11 2 -4 -4z"/>
<path d="M6756 5624 c-13 -13 -16 -46 -16 -209 0 -189 1 -194 22 -209 20 -14
145 -16 1148 -16 1003 0 1128 2 1148 16 21 15 22 20 22 214 0 187 -1 200 -19
210 -13 7 -391 10 -1155 10 -1018 0 -1136 -2 -1150 -16z m2224 -74 c18 -18 20
-33 20 -134 0 -91 -3 -118 -16 -130 -14 -14 -84 -16 -622 -16 -365 0 -613 4
-622 10 -12 7 -15 34 -15 135 0 114 2 128 19 141 17 12 117 14 618 14 585 0
598 0 618 -20z m-2042 -132 l-3 -113 -52 -3 -53 -3 0 115 0 116 55 0 56 0 -3
-112z m222 -3 l0 -115 -55 0 -55 0 0 115 0 115 55 0 55 0 0 -115z m218 3 l-3
-113 -50 0 -50 0 -3 113 -3 112 56 0 56 0 -3 -112z m222 -4 l0 -115 -52 3 -53
3 -3 113 -3 112 56 0 55 0 0 -116z"/>
<path d="M6752 5048 c-8 -8 -12 -54 -12 -140 l0 -128 -2124 0 c-1168 0 -2131
-3 -2140 -6 -15 -6 -16 -149 -16 -1520 0 -1435 -1 -1514 -17 -1515 -10 0 -61
-1 -113 -2 l-95 -2 2 -42 c3 -78 68 -168 150 -209 37 -18 109 -19 2623 -22
2835 -2 2628 -7 2709 57 46 37 89 114 97 175 l7 46 616 0 c467 0 620 3 629 12
14 14 17 394 4 415 -6 10 -170 13 -743 15 l-734 3 0 65 0 65 729 3 c518 1 733
5 743 13 18 15 19 399 1 417 -9 9 -188 12 -745 12 l-733 0 0 65 0 65 726 0
c481 0 732 3 745 10 18 10 19 23 19 216 l0 204 -26 10 c-15 6 -302 10 -745 10
l-720 0 3 63 3 62 729 3 c518 1 733 5 743 13 18 15 19 399 1 417 -9 9 -188 12
-745 12 l-733 0 0 65 0 65 729 0 c650 0 731 2 745 16 24 23 24 395 0 418 -14
14 -95 16 -745 16 l-729 0 0 65 0 65 733 0 c557 0 736 3 745 12 9 9 12 69 12
208 0 139 -3 199 -12 208 -17 17 -2299 17 -2316 0z m2232 -80 c12 -17 16 -49
16 -128 0 -79 -4 -111 -16 -128 l-15 -22 -608 0 c-553 0 -610 1 -622 17 -22
26 -25 227 -5 258 l16 25 610 0 609 0 15 -22z m-2060 -14 c13 -5 16 -23 16
-90 l0 -84 -55 0 -55 0 0 83 c0 46 3 87 7 90 8 9 66 9 87 1z m214 0 c21 -4 22
-9 22 -89 l0 -85 -55 0 -55 0 0 84 c0 96 8 105 88 90z m240 -86 l3 -88 -56 0
-55 0 0 83 c0 46 3 87 7 91 4 4 28 6 53 4 l45 -3 3 -87z m219 78 c4 -4 6 -169
2 -206 0 -8 -4 -4 -8 10 -6 22 -13 25 -54 28 l-47 3 0 84 c0 71 3 84 18 89 18
5 82 0 89 -8z m-62 -1626 l0 -1395 -2510 0 -2510 0 -3 1385 c-1 762 0 1391 3
1398 3 10 511 12 2512 10 l2508 -3 0 -1395z m1455 1071 c5 -11 10 -68 10 -126
0 -58 -5 -115 -10 -126 -10 -18 -28 -19 -631 -19 l-619 0 -10 26 c-6 14 -10
67 -10 119 0 52 4 105 10 119 l10 26 619 0 c603 0 621 -1 631 -19z m-1380
-119 c0 -48 -5 -94 -10 -102 -7 -10 -10 20 -10 93 0 70 4 106 10 102 6 -3 10
-45 10 -93z m1374 -454 c12 -17 16 -49 16 -128 0 -79 -4 -111 -16 -128 l-15
-22 -609 0 -609 0 -15 22 c-12 17 -16 49 -16 128 0 79 4 111 16 128 l15 22
609 0 609 0 15 -22z m-1374 -128 c0 -47 -5 -92 -10 -100 -7 -10 -10 22 -10
100 0 78 3 110 10 100 5 -8 10 -53 10 -100z m1370 -440 c12 -7 16 -36 18 -129
3 -110 2 -121 -17 -140 -21 -21 -26 -21 -621 -21 -595 0 -600 0 -621 21 -19
19 -20 30 -17 140 2 93 6 122 18 129 9 6 257 10 620 10 363 0 611 -4 620 -10z
m-1371 -134 c-1 -52 -5 -100 -10 -107 -5 -9 -9 31 -9 99 0 75 3 111 10 107 6
-4 10 -45 9 -99z m1372 -447 c19 -19 20 -30 17 -140 -2 -93 -6 -122 -18 -129
-9 -6 -258 -10 -622 -10 l-608 0 -16 25 c-13 20 -15 46 -12 136 3 95 6 113 23
125 16 12 119 14 617 14 593 0 598 0 619 -21z m-1371 -136 c0 -51 -4 -95 -10
-98 -6 -4 -10 34 -10 107 0 77 3 108 10 98 5 -8 10 -56 10 -107z m1372 -440
c15 -14 18 -32 18 -130 0 -100 -2 -115 -20 -133 -20 -20 -33 -20 -618 -20
-500 0 -601 2 -618 14 -16 12 -19 29 -22 126 -3 89 -1 116 12 135 l16 25 607
0 c550 0 608 -2 625 -17z m-1372 -135 c0 -48 -4 -90 -10 -93 -6 -4 -10 32 -10
102 0 73 3 103 10 93 5 -8 10 -54 10 -102z"/>
<path d="M5835 3840 c-3 -6 1 -7 9 -4 18 7 21 14 7 14 -6 0 -13 -4 -16 -10z"/>
<path d="M5729 3783 c-13 -16 -12 -17 4 -4 16 13 21 21 13 21 -2 0 -10 -8 -17
-17z"/>
<path d="M5521 3574 c0 -11 3 -14 6 -6 3 7 2 16 -1 19 -3 4 -6 -2 -5 -13z"/>
<path d="M4260 3526 c0 -2 7 -7 16 -10 8 -3 12 -2 9 4 -6 10 -25 14 -25 6z"/>
<path d="M5566 3197 c3 -10 9 -15 12 -12 3 3 0 11 -7 18 -10 9 -11 8 -5 -6z"/>
<path d="M4776 3173 c-6 -14 -5 -15 5 -6 7 7 10 15 7 18 -3 3 -9 -2 -12 -12z"/>
<path d="M6180 3128 c-15 -21 -17 -28 -6 -19 16 13 41 51 33 51 -2 0 -14 -15
-27 -32z"/>
<path d="M4847 3119 c7 -7 15 -10 18 -7 3 3 -2 9 -12 12 -14 6 -15 5 -6 -5z"/>
<path d="M4240 3110 c-8 -5 -10 -10 -5 -10 6 0 17 5 25 10 8 5 11 10 5 10 -5
0 -17 -5 -25 -10z"/>
<path d="M3770 3101 c0 -6 4 -13 10 -16 6 -3 7 1 4 9 -7 18 -14 21 -14 7z"/>
<path d="M4740 3076 c0 -2 8 -10 18 -17 15 -13 16 -12 3 4 -13 16 -21 21 -21
13z"/>
<path d="M4280 2756 c0 -2 8 -10 18 -17 15 -13 16 -12 3 4 -13 16 -21 21 -21
13z"/>
<path d="M4653 2715 c0 -27 2 -38 4 -22 2 15 2 37 0 50 -2 12 -4 0 -4 -28z"/>
<path d="M5980 2756 c0 -2 8 -10 18 -17 15 -13 16 -12 3 4 -13 16 -21 21 -21
13z"/>
<path d="M3855 2720 c10 -11 20 -20 23 -20 3 0 -3 9 -13 20 -10 11 -20 20 -23
20 -3 0 3 -9 13 -20z"/>
<path d="M4001 2724 c0 -11 3 -14 6 -6 3 7 2 16 -1 19 -3 4 -6 -2 -5 -13z"/>
<path d="M5461 2724 c0 -11 3 -14 6 -6 3 7 2 16 -1 19 -3 4 -6 -2 -5 -13z"/>
<path d="M4380 2726 c0 -2 8 -10 18 -17 15 -13 16 -12 3 4 -13 16 -21 21 -21
13z"/>
<path d="M4931 2714 c0 -11 3 -14 6 -6 3 7 2 16 -1 19 -3 4 -6 -2 -5 -13z"/>
<path d="M5200 2721 c0 -6 4 -13 10 -16 6 -3 7 1 4 9 -7 18 -14 21 -14 7z"/>
<path d="M5488 2683 c6 -2 18 -2 25 0 6 3 1 5 -13 5 -14 0 -19 -2 -12 -5z"/>
<path d="M5938 2683 c6 -2 18 -2 25 0 6 3 1 5 -13 5 -14 0 -19 -2 -12 -5z"/>
<path d="M6250 2686 c0 -2 7 -7 16 -10 8 -3 12 -2 9 4 -6 10 -25 14 -25 6z"/>
<path d="M4875 2660 c-3 -5 -1 -10 4 -10 6 0 11 5 11 10 0 6 -2 10 -4 10 -3 0
-8 -4 -11 -10z"/>
<path d="M4445 2650 c3 -5 8 -10 11 -10 2 0 4 5 4 10 0 6 -5 10 -11 10 -5 0
-7 -4 -4 -10z"/>
<path d="M4133 2643 c9 -2 23 -2 30 0 6 3 -1 5 -18 5 -16 0 -22 -2 -12 -5z"/>
<path d="M4828 2643 c7 -3 16 -2 19 1 4 3 -2 6 -13 5 -11 0 -14 -3 -6 -6z"/>
<path d="M5708 2643 c7 -3 16 -2 19 1 4 3 -2 6 -13 5 -11 0 -14 -3 -6 -6z"/>
<path d="M6098 2643 c7 -3 16 -2 19 1 4 3 -2 6 -13 5 -11 0 -14 -3 -6 -6z"/>
</g>
</svg>
