<?xml version="1.0" encoding="utf-8"?>
<!-- Generator: Adobe Illustrator 27.5.0, SVG Export Plug-In . SVG Version: 6.00 Build 0)  -->
<svg version="1.1" xmlns="http://www.w3.org/2000/svg" xmlns:xlink="http://www.w3.org/1999/xlink" x="0px" y="0px"
	 viewBox="0 0 500 500" style="enable-background:new 0 0 500 500;" xml:space="preserve">
<g id="BACKGROUND">
	<rect y="0" style="fill:#FFFFFF;" width="500" height="500"/>
</g>
<g id="OBJECTS">
	<g>
		<linearGradient id="SVGID_1_" gradientUnits="userSpaceOnUse" x1="176.1803" y1="115.2877" x2="816.3296" y2="1118.447">
			<stop  offset="0" style="stop-color:#B9F5FC"/>
			<stop  offset="1" style="stop-color:#3483F6"/>
		</linearGradient>
		<path style="fill:url(#SVGID_1_);" d="M364.377,368.722c-40.361,22.435-91.738,33.51-144.994,21.16
			c-17.127-3.975-34.446-10.367-51.65-19.588C31.397,297.255,67.405,115.723,162.946,86.446
			c95.541-29.277,117.011,34.57,171.17,68.515c54.158,33.949,102.464,12.919,111.732,95.646
			C450.435,291.556,416.652,339.67,364.377,368.722z"/>
		<g>
			
				<linearGradient id="SVGID_00000142890931351422680100000006534541113152681091_" gradientUnits="userSpaceOnUse" x1="491.6602" y1="289.088" x2="358.4585" y2="334.9522">
				<stop  offset="0" style="stop-color:#A8FBD6"/>
				<stop  offset="0.9888" style="stop-color:#388AAA"/>
			</linearGradient>
			<path style="fill:url(#SVGID_00000142890931351422680100000006534541113152681091_);" d="M350.338,331.33
				c8.417-44.893,67.455-75.875,77.945-64.897c10.49,10.978-52.016,54.845-52.016,54.845s54.456-45.331,82.023-26.058
				c27.567,19.273-77.091,39.635-77.091,39.635s73.188-15.239,77.579,7.937c4.391,23.176-76.584,12.263-89.777,20.971"/>
			<path style="opacity:0.35;fill:none;stroke:#FFFFFF;stroke-width:2.3888;stroke-linecap:round;stroke-miterlimit:10;" d="
				M349.484,351.922c15.613-28.103,91.973-49.328,91.973-49.328"/>
			<path style="opacity:0.35;fill:none;stroke:#FFFFFF;stroke-width:2.3888;stroke-linecap:round;stroke-miterlimit:10;" d="
				M354.607,358.36c12.198-16.244,85.142-15.066,85.142-15.066"/>
			<path style="opacity:0.35;fill:none;stroke:#FFFFFF;stroke-width:2.3888;stroke-linecap:round;stroke-miterlimit:10;" d="
				M352.684,347.234c5.583-28.05,45.592-64.232,59.742-71.147"/>
		</g>
		<g>
			
				<linearGradient id="SVGID_00000162333813533638165860000012432979381926333342_" gradientUnits="userSpaceOnUse" x1="-28.986" y1="213.2327" x2="-162.1855" y2="259.0962" gradientTransform="matrix(-0.9997 -0.0252 -0.0252 0.9997 -14.9292 -0.0525)">
				<stop  offset="0" style="stop-color:#A8FBD6"/>
				<stop  offset="0.9888" style="stop-color:#388AAA"/>
			</linearGradient>
			<path style="fill:url(#SVGID_00000162333813533638165860000012432979381926333342_);" d="M148.887,259.639
				c-7.281-45.091-65.519-77.553-76.283-66.843c-10.764,10.71,50.616,56.14,50.616,56.14s-53.295-46.691-81.34-28.119
				s76.067,41.567,76.067,41.567s-72.78-17.08-77.755,5.977c-4.975,23.058,76.25,14.191,89.219,23.23"/>
			<path style="opacity:0.35;fill:none;stroke:#FFFFFF;stroke-width:2.3888;stroke-linecap:round;stroke-miterlimit:10;" d="
				M149.221,280.247c-14.899-28.489-90.699-51.633-90.699-51.633"/>
			<path style="opacity:0.35;fill:none;stroke:#FFFFFF;stroke-width:2.3888;stroke-linecap:round;stroke-miterlimit:10;" d="
				M143.937,286.553c-11.784-16.547-84.735-17.21-84.735-17.21"/>
			<path style="opacity:0.35;fill:none;stroke:#FFFFFF;stroke-width:2.3888;stroke-linecap:round;stroke-miterlimit:10;" d="
				M146.141,275.479c-4.873-28.182-43.957-65.362-57.928-72.632"/>
		</g>
		
			<linearGradient id="SVGID_00000044874544774213196570000012972183471704233909_" gradientUnits="userSpaceOnUse" x1="274.1816" y1="189.6568" x2="288.8192" y2="327.2495">
			<stop  offset="0" style="stop-color:#B9F5FC"/>
			<stop  offset="1" style="stop-color:#3483F6"/>
		</linearGradient>
		<path style="fill:url(#SVGID_00000044874544774213196570000012972183471704233909_);" d="M364.377,368.722
			c-40.361,22.435-91.738,33.51-144.994,21.16l21.174-56.342l-6.115-36.988l49.662-13.31l78.165,19.11L364.377,368.722z"/>
		<g>
			<g>
				
					<linearGradient id="SVGID_00000115489715061203929300000006276297480239866559_" gradientUnits="userSpaceOnUse" x1="303.2438" y1="120.0719" x2="321.5406" y2="364.5179">
					<stop  offset="0" style="stop-color:#F097F8"/>
					<stop  offset="1" style="stop-color:#8F5FF5"/>
				</linearGradient>
				<path style="fill:url(#SVGID_00000115489715061203929300000006276297480239866559_);" d="M387.877,195.479l-7.706,16.497
					l-4.749,10.167l-3.851,8.246l-4.453,9.531l-4.749,10.171l-2.642,5.661c0,0,0.387,6.478,0.86,14.638
					c0.186,3.225,0.387,6.712,0.583,10.167c0.549,9.727,1.056,19.196,1.099,21.795c0.053,3.196-5.432,3.846-12.25,3.736
					c-2.599-0.038-5.389-0.191-8.146-0.349c-3.258-0.196-6.464-0.401-9.225-0.463c-1.347-0.029-3.507-0.014-6.263,0.024
					c-2.331,0.029-5.093,0.081-8.146,0.134c-4.639,0.086-9.956,0.186-15.489,0.263c-2.685,0.038-5.418,0.072-8.146,0.095
					c-5.298,0.048-10.587,0.057-15.489,0c-2.876-0.033-5.618-0.091-8.146-0.177c-9.522-0.315-16.038-1.051-15.412-2.532
					c0.783-1.868,1.018-11.581,1.018-22.526c0-3.335-0.024-6.789-0.057-10.167c-0.081-7.443-0.22-14.529-0.33-19.254
					c-0.01-0.363-0.014-0.712-0.019-1.046c-0.076-2.957-0.124-4.749-0.124-4.749l-13.363-4.027l-4.639-1.395l-4.93-1.486
					c0,0,1.051-6.975,2.718-16.291c0.568-3.177,1.204-6.627,1.901-10.167c1.171-5.972,2.499-12.197,3.894-17.782
					c0.946-3.77,1.921-7.252,2.905-10.167c0.258-0.774,0.521-1.505,0.779-2.193c2.886-7.615,12.723-14.084,25.66-18.766
					c2.599-0.941,5.327-1.811,8.146-2.604c4.653-1.304,9.565-2.398,14.591-3.258c0.296-0.053,0.597-0.1,0.898-0.148
					c2.69-0.449,5.413-0.827,8.146-1.132c5.179-0.583,10.391-0.913,15.489-0.956c0.741-0.01,1.476-0.01,2.212-0.005
					c1.992,0.014,3.97,0.091,5.934,0.239c0.917,0.067,1.83,0.148,2.742,0.244c4.352,0.454,8.624,1.214,12.747,2.26
					c2.785,0.707,5.508,1.543,8.146,2.499c14.027,5.064,25.741,13.482,32.583,23.821c2.131,3.22,3.789,6.622,4.897,10.167
					C387.634,194.619,387.758,195.049,387.877,195.479z"/>
				
					<linearGradient id="SVGID_00000029754130728269228130000017919992433986681751_" gradientUnits="userSpaceOnUse" x1="256.1957" y1="136.5533" x2="251.5605" y2="237.3089">
					<stop  offset="0" style="stop-color:#F097F8"/>
					<stop  offset="1" style="stop-color:#8F5FF5"/>
				</linearGradient>
				<polygon style="fill:url(#SVGID_00000029754130728269228130000017919992433986681751_);" points="262.075,197.706 
					256.046,245.342 242.683,241.315 				"/>
				
					<linearGradient id="SVGID_00000101091789676787870960000005377724090738557080_" gradientUnits="userSpaceOnUse" x1="314.3164" y1="142.5774" x2="313.5845" y2="260.4095">
					<stop  offset="0" style="stop-color:#F097F8"/>
					<stop  offset="1" style="stop-color:#8F5FF5"/>
				</linearGradient>
				<path style="fill:url(#SVGID_00000101091789676787870960000005377724090738557080_);" d="M359.728,255.753
					c0,0,2.441,40.743,2.542,46.6c0.1,5.852-18.398,3.168-29.621,2.924c-11.223-0.244-79.04,2.441-77.09-2.193
					c1.553-3.688,0.946-38.043,0.631-51.946c42.955,4.238,88.322-9.297,99.239-53.432l16.143,32.683L359.728,255.753z"/>
				<path style="opacity:0.25;fill:#FFFFFF;" d="M361.171,280.558H256.576c0-3.335-0.024-6.789-0.057-10.167h104.069
					C360.774,273.616,360.975,277.103,361.171,280.558z"/>
				<g style="opacity:0.45;">
					<path style="opacity:0.25;fill:#FFFFFF;" d="M353.613,239.92c-0.005,0.057-0.005,0.11-0.01,0.162
						c-0.215,4.032-0.769,7.085-1.925,8.107c-0.645,0.569-2.427,1.214-4.983,1.902H256.17c-0.076-2.957-0.124-4.749-0.124-4.749
						l-18.002-5.423H353.613z"/>
					<path style="opacity:0.25;fill:#FFFFFF;" d="M353.355,222.143h-94.681c0.569-3.177,1.204-6.627,1.901-10.167h92.422
						C353.03,214.824,353.193,218.378,353.355,222.143z"/>
					<path style="opacity:0.25;fill:#FFFFFF;" d="M369.99,184.028c-4.892,0.831-9.674,4.132-12.957,10.167h-92.565
						c0.946-3.77,1.921-7.252,2.905-10.167H369.99z"/>
				</g>
				<path style="fill:#FFFFFF;" d="M329.128,155.448c-2.494,7.286-11.318,16.019-24.289,14.309
					c-10.267-1.352-11.509-8.055-11.132-12.551c8.81-1.51,17.978-2.298,26.745-2.241
					C323.371,154.985,326.266,155.147,329.128,155.448z"/>
				<g>
					<path style="fill:#542076;" d="M290.771,112.876c-6.343-0.813-11.303-9.108-9.677-11.791c1.626-2.684,8.539,0,8.539,0
						s-7.237-5.936-5.286-10.897c1.952-4.961,11.547,1.952,11.547,1.952s-2.358-8.62,1.382-10.002
						c3.741-1.382,5.123,7.156,9.677,8.62c4.554,1.464,16.345,0.569,22.038,6.262c5.692,5.692,2.277,11.791,2.277,11.791
						s7.4,2.196,5.692,9.677c-1.708,7.481-7.432,8.401-9.205,12.251c-1.773,3.85-3.481,10.681-10.474,9.461"/>
					
						<linearGradient id="SVGID_00000050620633214490207520000010913851971559768969_" gradientUnits="userSpaceOnUse" x1="326.3785" y1="193.2807" x2="297.3472" y2="109.3584">
						<stop  offset="0" style="stop-color:#F7CBCE"/>
						<stop  offset="1" style="stop-color:#F08EA3"/>
					</linearGradient>
					<path style="fill:url(#SVGID_00000050620633214490207520000010913851971559768969_);" d="M323.084,155.367
						c-0.177,1.037-3.913,8.17-13.936,8.356c-10.023,0.182-10.348-5.981-10.348-5.981s0.1-1.132,0.167-2.929
						c0.077-2.155,0.1-5.274-0.167-8.537l18.594-8.729l4.4-2.064c0,0,0.057,0.721,0.143,1.892
						C322.306,142.176,323.223,154.531,323.084,155.367z"/>
					<path style="fill:#D25482;" d="M321.938,137.375c-0.979,7.893-11.184,19.019-22.97,17.438c0.077-2.155,0.1-5.274-0.167-8.537
						l18.594-8.729L321.938,137.375z"/>
					
						<linearGradient id="SVGID_00000013173784492363611580000008927053867861688983_" gradientUnits="userSpaceOnUse" x1="303.045" y1="154.3245" x2="329.7584" y2="19.2933">
						<stop  offset="0" style="stop-color:#F7CBCE"/>
						<stop  offset="1" style="stop-color:#F08EA3"/>
					</linearGradient>
					<path style="fill:url(#SVGID_00000013173784492363611580000008927053867861688983_);" d="M288.725,106.868
						c13.906,6.587,32.216,4.157,32.216,4.157s-0.549,14.577,0.732,16.284c1.281,1.708,1.159-5.733,4.818-7.075
						c3.659-1.342,7.758,2.594,5.266,7.278c-2.493,4.685-8.173,3.375-8.173,3.375s-1.423,18.317-18.988,18.256
						c-17.565-0.061-16.833-19.761-16.65-28.299C288.128,112.306,288.725,106.868,288.725,106.868z"/>
					<path style="fill:none;stroke:#D16B83;stroke-width:0.9555;stroke-linecap:round;stroke-miterlimit:10;" d="M326.592,127.165
						c-1.301-2.933,1.546-5.152,3.253-2.933"/>
					
						<path style="fill:none;stroke:#D16B83;stroke-width:0.9555;stroke-linecap:round;stroke-linejoin:round;stroke-miterlimit:10;" d="
						M303.223,123.04l-2.463,8.695c-0.286,1.008,0.334,2.05,1.357,2.28l2.722,0.613"/>
					<path style="fill:none;stroke:#FFFFFF;stroke-width:0.9555;stroke-miterlimit:10;" d="M319.388,127.165
						c0,3.874-3.14,7.014-7.014,7.014c-3.874,0-7.014-3.14-7.014-7.014c0-3.874,3.14-7.014,7.014-7.014
						C316.248,120.152,319.388,123.292,319.388,127.165z"/>
					<path style="fill:none;stroke:#FFFFFF;stroke-width:0.9555;stroke-miterlimit:10;" d="M300.691,126.114
						c0,3.874-3.14,7.014-7.014,7.014c-3.874,0-7.014-3.14-7.014-7.014c0-3.874,3.14-7.014,7.014-7.014
						C297.55,119.1,300.691,122.241,300.691,126.114z"/>
					
						<line style="fill:none;stroke:#FFFFFF;stroke-width:0.9555;stroke-miterlimit:10;" x1="300.637" y1="125.248" x2="305.511" y2="125.715"/>
					<circle style="fill:#330E49;" cx="310.857" cy="126.497" r="1.708"/>
					<circle style="fill:#330E49;" cx="293.677" cy="125.715" r="1.708"/>
					
						<path style="fill:none;stroke:#330E49;stroke-width:0.9555;stroke-linecap:round;stroke-linejoin:round;stroke-miterlimit:10;" d="
						M291.503,116.494c0,0,2.399-2.236,6.343,0"/>
					
						<path style="fill:none;stroke:#330E49;stroke-width:0.9555;stroke-linecap:round;stroke-linejoin:round;stroke-miterlimit:10;" d="
						M315.145,116.991c0,0-2.399-2.236-6.343,0"/>
					
						<path style="fill:none;stroke:#D16B83;stroke-width:0.9555;stroke-linecap:round;stroke-linejoin:round;stroke-miterlimit:10;" d="
						M303.864,139.786c0,0,3.293,2.277,7.197-0.773"/>
					
						<line style="fill:none;stroke:#FFFFFF;stroke-width:0.9555;stroke-linecap:round;stroke-miterlimit:10;" x1="319.237" y1="125.715" x2="323.084" y2="125.248"/>
				</g>
				<g>
					<g>
						<g>
							
								<linearGradient id="SVGID_00000140717045562624449980000016956295644136632470_" gradientUnits="userSpaceOnUse" x1="147.8398" y1="191.2534" x2="503.1258" y2="656.0861">
								<stop  offset="0" style="stop-color:#773BA1"/>
								<stop  offset="1" style="stop-color:#4F206E"/>
							</linearGradient>
							<path style="fill:url(#SVGID_00000140717045562624449980000016956295644136632470_);" d="M291.321,377.899
								c-1.085,6.684-6.559,12.068-13.616,12.751l-107.681,10.425c-8.404,0.812-15.876-5.341-16.688-13.745l-0.502-5.179
								l-6.502-67.186l-6.039-62.385l-3.402-35.11l-3.918-40.48c-0.812-8.408,5.341-15.881,13.745-16.693L254.4,149.872
								c8.404-0.812,15.876,5.341,16.688,13.745l7.888,81.466l1.366,14.113c0,0.005,0,0.005,0,0.005l0.196,2.04l3.406,35.172
								l1.123,11.619l6.383,65.93C291.579,375.305,291.531,376.624,291.321,377.899z"/>
							<path style="fill:#FFFFFF;" d="M278.505,376.756l-111.93,10.834c-4.151,0.402-7.842-2.638-8.244-6.789l-19.2-198.364
								c-0.402-4.151,2.638-7.842,6.789-8.244l111.93-10.834c4.151-0.402,7.842,2.638,8.244,6.789l19.2,198.364
								C285.696,372.663,282.656,376.354,278.505,376.756z"/>
							<path style="fill:#D6E9FC;" d="M254.21,253.075l-86.665,8.498c-1.849,0.181-3.496-1.171-3.677-3.02v0
								c-0.181-1.849,1.171-3.495,3.02-3.677l86.665-8.498c1.849-0.181,3.496,1.171,3.677,3.02l0,0
								C257.411,251.247,256.059,252.894,254.21,253.075z"/>
							<path style="fill:#D6E9FC;" d="M257.402,275.187l-86.665,8.498c-1.849,0.181-3.496-1.171-3.677-3.02l0,0
								c-0.181-1.849,1.171-3.495,3.02-3.677l86.665-8.498c1.849-0.181,3.496,1.171,3.677,3.02l0,0
								C260.604,273.359,259.252,275.005,257.402,275.187z"/>
							<path style="fill:#D6E9FC;" d="M260.595,297.298l-86.665,8.498c-1.849,0.181-3.495-1.171-3.677-3.02v0
								c-0.181-1.849,1.171-3.495,3.02-3.677l86.665-8.498c1.849-0.181,3.495,1.171,3.677,3.02l0,0
								C263.796,295.471,262.444,297.117,260.595,297.298z"/>
							<path style="fill:#D6E9FC;" d="M263.787,319.41l-86.665,8.498c-1.849,0.181-3.496-1.171-3.677-3.02l0,0
								c-0.181-1.849,1.171-3.495,3.02-3.677l86.665-8.498c1.849-0.181,3.496,1.171,3.677,3.02l0,0
								C266.989,317.582,265.637,319.229,263.787,319.41z"/>
							<path style="fill:#D6E9FC;" d="M266.98,341.522l-86.665,8.498c-1.849,0.181-3.496-1.171-3.677-3.02l0,0
								c-0.181-1.849,1.171-3.496,3.02-3.677l86.665-8.498c1.849-0.181,3.496,1.171,3.677,3.02l0,0
								C270.181,339.694,268.829,341.34,266.98,341.522z"/>
							<g>
								<path style="fill:#D6E9FC;" d="M248.4,183.598l-54.67,5.292l-34.653,3.354l-0.004,0c-0.416,0.04-0.798,0.177-1.132,0.382
									c-0.841,0.516-1.361,1.478-1.26,2.527l2.434,25.141l1.352,13.97c0.142,1.467,1.443,2.538,2.905,2.397l54.674-5.292
									l34.653-3.354c1.467-0.142,2.538-1.443,2.396-2.91l-2.434-25.141l-1.352-13.97
									C251.169,184.531,249.867,183.456,248.4,183.598z"/>
								<g>
									
										<linearGradient id="SVGID_00000098210493045060959060000009431243329385920433_" gradientUnits="userSpaceOnUse" x1="108.7322" y1="-54.5987" x2="322.4484" y2="453.832" gradientTransform="matrix(0.9953 -0.0963 0.0963 0.9953 -27.9178 26.5982)">
										<stop  offset="0" style="stop-color:#F4B5BD"/>
										<stop  offset="1" style="stop-color:#EC4457"/>
									</linearGradient>
									<path style="fill:url(#SVGID_00000098210493045060959060000009431243329385920433_);" d="M255.135,176.78l4.16,42.974
										c0.156,1.612-1.021,3.041-2.633,3.197l-98.15,9.5c-1.607,0.155-3.036-1.021-3.193-2.633l-4.16-42.974
										c-0.156-1.607,1.021-3.041,2.628-3.197l98.15-9.5C253.55,173.991,254.979,175.173,255.135,176.78z"/>
									
										<linearGradient id="SVGID_00000061472438319397218220000001966054434641793469_" gradientUnits="userSpaceOnUse" x1="237.2857" y1="185.8171" x2="268.3919" y2="257.5443" gradientTransform="matrix(0.9953 -0.0963 0.0963 0.9953 -27.9178 26.5982)">
										<stop  offset="0" style="stop-color:#F4B5BD"/>
										<stop  offset="1" style="stop-color:#EC4457"/>
									</linearGradient>
									<path style="fill:url(#SVGID_00000061472438319397218220000001966054434641793469_);" d="M256.621,192.13l2.674,27.624
										c0.156,1.612-1.021,3.041-2.633,3.197l-38.076,3.685c1.507-17.805,15.545-32.55,33.967-34.333
										C253.918,192.171,255.275,192.112,256.621,192.13z"/>
									
										<linearGradient id="SVGID_00000148631020694960282590000008655889615059446192_" gradientUnits="userSpaceOnUse" x1="170.2506" y1="167.1057" x2="222.2163" y2="254.2031" gradientTransform="matrix(0.9953 -0.0963 0.0963 0.9953 -27.9178 26.5982)">
										<stop  offset="0" style="stop-color:#F4B5BD"/>
										<stop  offset="1" style="stop-color:#EC4457"/>
									</linearGradient>
									<path style="fill:url(#SVGID_00000148631020694960282590000008655889615059446192_);" d="M153.834,214.468l-2.674-27.624
										c-0.156-1.612,1.021-3.041,2.633-3.197l38.076-3.686c-1.507,17.805-15.545,32.55-33.967,34.333
										C156.537,214.427,155.18,214.486,153.834,214.468z"/>
									
										<text transform="matrix(0.9954 -0.0963 0.0963 0.9954 162.9547 215.1815)" style="fill:#FFFFFF; font-family:'RubikRoman-Black'; font-size:26.357px; letter-spacing:2;">NEWS</text>
								</g>
							</g>
							
								<linearGradient id="SVGID_00000004506467013816866730000008699239040054470038_" gradientUnits="userSpaceOnUse" x1="166.3244" y1="212.5497" x2="86.5498" y2="278.6626">
								<stop  offset="0" style="stop-color:#F7CBCE"/>
								<stop  offset="1" style="stop-color:#F08EA3"/>
							</linearGradient>
							<path style="fill:url(#SVGID_00000004506467013816866730000008699239040054470038_);" d="M128.335,243.922
								c-1.323-18.584,4.391-26.104,11.832-27.567c7.441-1.464,21.023-6.099,22.405-2.806c1.382,3.293-5.048,7.602-11.425,9.514
								c-2.441,0.732-3.417,1.708-3.417,1.708s4.147,5.245,2.684,15.37c-1.464,10.124-11.1,14.759-14.882,11.832
								C131.75,249.046,128.603,247.697,128.335,243.922z"/>
						</g>
					</g>
					
						<linearGradient id="SVGID_00000162345513910844819400000005440716785286819726_" gradientUnits="userSpaceOnUse" x1="247.7736" y1="277.7277" x2="438.5498" y2="240.646">
						<stop  offset="0" style="stop-color:#F7CBCE"/>
						<stop  offset="1" style="stop-color:#F08EA3"/>
					</linearGradient>
					<path style="fill:url(#SVGID_00000162345513910844819400000005440716785286819726_);" d="M295.162,263.48
						c-2.927-0.407-10.002-20.005-16.264-18.378c-6.262,1.626,0.976,12.117,1.952,15.369c0.976,3.253-17.24-1.87-20.737-5.692
						c-3.497-3.822-6.749,3.334-3.415,8.295c3.334,4.961,6.424,6.506,6.424,6.506s-7.075-6.668-10.734-2.521
						c-3.659,4.147,10.49,15.613,10.49,15.613s-11.059-9.596-12.848-3.903c-1.789,5.692,6.343,16.101,20.33,17.402
						c13.987,1.301,25.128-1.138,25.128-1.138L295.162,263.48z"/>
					
						<path style="fill:none;stroke:#D16B83;stroke-width:0.9555;stroke-linecap:round;stroke-linejoin:round;stroke-miterlimit:10;" d="
						M261.096,268.131c4.1,4.152,8.918,4.518,8.918,4.518"/>
					
						<path style="fill:none;stroke:#D16B83;stroke-width:0.9555;stroke-linecap:round;stroke-linejoin:round;stroke-miterlimit:10;" d="
						M260.439,280.557c4.798,4.473,9.921,5.367,9.921,5.367"/>
				</g>
				<g style="opacity:0.27;">
					<path style="fill:#9F7AF6;" d="M194.948,378.334l-36.486,3.306l-5.628,0.511l-6.502-67.186l5.575-0.506l36.945-3.349
						c2.336-0.21,4.405,1.514,4.615,3.851l0.411,4.543l0.607,6.703l1.409,15.527l0.607,6.698l2.293,25.283
						C199.009,376.055,197.285,378.124,194.948,378.334z"/>
					<path style="fill:#9F7AF6;" d="M291.321,377.899L209.52,385.4c-1.266,0.115-2.417-0.597-2.919-1.686
						c-0.139-0.296-0.229-0.616-0.258-0.96l-3.172-34.976l-0.607-6.698l-1.409-15.527l-0.612-6.703l-0.009-0.124
						c-0.143-1.61,1.042-3.034,2.652-3.177l76.302-7.004l5.58-0.511l6.383,65.93C291.579,375.305,291.531,376.624,291.321,377.899z"
						/>
				</g>
				
					<linearGradient id="SVGID_00000114758620915377516540000009026670212381572773_" gradientUnits="userSpaceOnUse" x1="332.734" y1="117.8664" x2="351.0306" y2="362.3111">
					<stop  offset="0" style="stop-color:#F097F8"/>
					<stop  offset="1" style="stop-color:#8F5FF5"/>
				</linearGradient>
				<path style="fill:url(#SVGID_00000114758620915377516540000009026670212381572773_);" d="M391.322,239.92
					c-0.177,3.44-0.454,6.851-0.836,10.171c-0.741,6.464-1.887,12.565-3.507,17.787c-1.648,5.327-3.793,9.737-6.512,12.68
					c-3.139,3.397-9.851,6.254-18.198,8.619c-25.402,7.195-65.925,9.823-66.78,9.273c-1.142-0.736-1.304-36.596,0-38.306
					c1.046-1.371,34.15-5.915,49.17-9.536c0.721-0.177,1.4-0.349,2.035-0.516c2.556-0.688,4.338-1.333,4.983-1.902
					c1.156-1.022,1.71-4.075,1.925-8.107c0.005-0.052,0.005-0.105,0.01-0.162c0.263-5.093,0.005-11.705-0.258-17.777
					c-0.162-3.765-0.325-7.319-0.358-10.167c-0.024-1.987,0.01-3.631,0.148-4.768c0.64-5.255,2.021-9.579,3.889-13.014
					c3.282-6.034,8.065-9.335,12.957-10.167c1.672-0.287,3.359-0.287,4.997,0c5.064,0.86,9.722,4.352,12.359,10.167
					c0.712,1.567,1.276,3.306,1.658,5.208c0.731,3.612,1.333,7.888,1.768,12.574c0.306,3.225,0.525,6.641,0.659,10.167
					C391.652,227.9,391.633,233.948,391.322,239.92z"/>
				
					<linearGradient id="SVGID_00000000215585697413615190000013162176378831379882_" gradientUnits="userSpaceOnUse" x1="343.1925" y1="202.9954" x2="358.8059" y2="261.2202">
					<stop  offset="0" style="stop-color:#F097F8"/>
					<stop  offset="1" style="stop-color:#8F5FF5"/>
				</linearGradient>
				<path style="fill:url(#SVGID_00000000215585697413615190000013162176378831379882_);" d="M344.66,250.607
					c3.636-0.879,6.211-1.706,7.018-2.417c1.156-1.022,1.71-4.075,1.925-8.107c5.805,1.964,11.963,4.467,12.551,6.402
					C367.291,250.225,344.66,250.607,344.66,250.607z"/>
				
					<linearGradient id="SVGID_00000047773228870478368570000015069959590225128576_" gradientUnits="userSpaceOnUse" x1="372.311" y1="275.6977" x2="435.7402" y2="353.2764">
					<stop  offset="0" style="stop-color:#F097F8"/>
					<stop  offset="1" style="stop-color:#8F5FF5"/>
				</linearGradient>
				<path style="fill:url(#SVGID_00000047773228870478368570000015069959590225128576_);" d="M386.979,267.878
					c-1.648,5.327-3.793,9.737-6.512,12.68c-3.139,3.397-9.851,6.254-18.198,8.619c0.774-11.934,10.702-21.375,22.832-21.375
					C385.732,267.802,386.358,267.826,386.979,267.878z"/>
			</g>
			<g>
				
					<linearGradient id="SVGID_00000074422992853233518390000015492092005022026376_" gradientUnits="userSpaceOnUse" x1="41.0655" y1="-39.3533" x2="131.8182" y2="347.8099">
					<stop  offset="0" style="stop-color:#B9F5FC"/>
					<stop  offset="1" style="stop-color:#3483F6"/>
				</linearGradient>
				<path style="fill:url(#SVGID_00000074422992853233518390000015492092005022026376_);" d="M188.276,315.948L55.958,329.782
					c-3.663,0.383-6.943-2.276-7.326-5.939l-4.82-46.101c-0.383-3.663,2.276-6.942,5.939-7.325l132.318-13.834
					c3.663-0.383,6.943,2.276,7.326,5.939l4.82,46.101C194.597,312.285,191.938,315.565,188.276,315.948z"/>
				<g>
					<path style="opacity:0.74;fill:#FFFFFF;" d="M119.334,282.417l-55.887,5.843c-0.904,0.095-1.714-0.562-1.809-1.466l0,0
						c-0.095-0.905,0.562-1.715,1.467-1.809l55.887-5.843c0.905-0.095,1.715,0.562,1.809,1.466v0
						C120.895,281.513,120.239,282.323,119.334,282.417z"/>
					<path style="opacity:0.74;fill:#FFFFFF;" d="M120.615,294.67l-55.887,5.843c-0.905,0.095-1.714-0.562-1.809-1.467l0,0
						c-0.094-0.905,0.562-1.714,1.467-1.809l55.887-5.843c0.905-0.095,1.715,0.562,1.809,1.467l0,0
						C122.176,293.766,121.52,294.576,120.615,294.67z"/>
					<path style="opacity:0.74;fill:#FFFFFF;" d="M99.857,309.228l-33.848,3.539c-0.905,0.095-1.715-0.562-1.809-1.466l0,0
						c-0.094-0.905,0.562-1.715,1.467-1.809l33.848-3.539c0.905-0.095,1.715,0.562,1.809,1.467l0,0
						C101.418,308.323,100.761,309.133,99.857,309.228z"/>
				</g>
				
					<linearGradient id="SVGID_00000119104059260216588380000008875821322672051386_" gradientUnits="userSpaceOnUse" x1="121.409" y1="241.0862" x2="176.3" y2="421.1289">
					<stop  offset="0" style="stop-color:#B9F5FC"/>
					<stop  offset="1" style="stop-color:#3483F6"/>
				</linearGradient>
				<path style="fill:url(#SVGID_00000119104059260216588380000008875821322672051386_);" d="M139.779,305.054l-0.503,0.052
					c-1.302,0.136-2.467-0.809-2.604-2.111l-0.959-9.177c-0.136-1.302,0.809-2.467,2.11-2.603l0.503-0.053
					c1.302-0.136,2.467,0.809,2.603,2.111l0.959,9.177C142.026,303.752,141.081,304.918,139.779,305.054z"/>
				
					<linearGradient id="SVGID_00000129176480117465982990000006633275832460763810_" gradientUnits="userSpaceOnUse" x1="136.9932" y1="236.3348" x2="191.884" y2="416.3768">
					<stop  offset="0" style="stop-color:#B9F5FC"/>
					<stop  offset="1" style="stop-color:#3483F6"/>
				</linearGradient>
				<path style="fill:url(#SVGID_00000129176480117465982990000006633275832460763810_);" d="M155.059,303.456l-0.247,0.026
					c-1.372,0.143-2.601-0.853-2.745-2.225l-2.117-20.244c-0.143-1.372,0.853-2.601,2.225-2.745l0.247-0.026
					c1.372-0.143,2.601,0.853,2.745,2.225l2.117,20.244C157.428,302.084,156.431,303.313,155.059,303.456z"/>
				
					<linearGradient id="SVGID_00000025403641657016704550000002912139008057167522_" gradientUnits="userSpaceOnUse" x1="150.8726" y1="232.1034" x2="205.7635" y2="412.1457">
					<stop  offset="0" style="stop-color:#B9F5FC"/>
					<stop  offset="1" style="stop-color:#3483F6"/>
				</linearGradient>
				<path style="fill:url(#SVGID_00000025403641657016704550000002912139008057167522_);" d="M170.343,301.858L170.343,301.858
					c-1.441,0.151-2.73-0.895-2.881-2.336l-1.33-12.718c-0.151-1.441,0.895-2.73,2.336-2.881l0,0
					c1.441-0.151,2.73,0.895,2.881,2.336l1.33,12.718C172.829,300.418,171.783,301.708,170.343,301.858z"/>
			</g>
			<g>
				<path style="fill:#D6E9FC;" d="M196.378,411.551l-80.798,8.448c-3.216,0.336-6.096-1.998-6.432-5.215l-8.448-80.798
					c-0.336-3.216,1.998-6.096,5.214-6.432l80.798-8.448c3.216-0.336,6.096,1.998,6.432,5.214l8.448,80.798
					C201.929,408.335,199.594,411.215,196.378,411.551z"/>
				<g>
					<path style="fill:#FFFFFF;" d="M186.065,327.383l5.627,53.819c0.049,0.473-0.29,0.891-0.762,0.94l-76.106,7.957
						c-0.468,0.049-0.886-0.29-0.936-0.763l-5.627-53.819c-0.049-0.468,0.29-0.891,0.758-0.94l76.111-7.958
						C185.597,326.572,186.016,326.915,186.065,327.383z"/>
					<path style="fill:#D6E9FC;" d="M185.062,356.165l2.208,21.122c0.044,0.422-0.262,0.8-0.685,0.845l-68.341,7.145
						c-0.42,0.044-0.796-0.261-0.84-0.685l-1.995-19.081l5.563-6.862c2.173-2.681,6.108-3.092,8.789-0.919l7.45,6.04
						c2.681,2.173,6.616,1.762,8.789-0.919l14.827-18.29c2.174-2.681,6.109-3.092,8.79-0.919L185.062,356.165z"/>
					<g>
						<path style="fill:#A0BEED;" d="M144.764,396.435l-24.673,2.58c-1.203,0.126-2.28-0.747-2.406-1.951v0
							c-0.126-1.203,0.748-2.28,1.951-2.406l24.673-2.58c1.203-0.126,2.28,0.748,2.406,1.951l0,0
							C146.84,395.232,145.967,396.31,144.764,396.435z"/>
						<g>
							<path style="fill:#FFFFFF;" d="M169.801,398.937l-50.572,5.287c-0.434,0.046-0.823-0.27-0.869-0.704l0,0
								c-0.045-0.434,0.27-0.823,0.704-0.869l50.572-5.287c0.434-0.046,0.823,0.27,0.869,0.704l0,0
								C170.551,398.503,170.235,398.892,169.801,398.937z"/>
							<path style="fill:#FFFFFF;" d="M170.47,405.335l-50.572,5.288c-0.435,0.045-0.824-0.27-0.869-0.704l0,0
								c-0.045-0.434,0.27-0.823,0.704-0.869l50.572-5.288c0.434-0.045,0.823,0.27,0.869,0.704l0,0
								C171.22,404.901,170.904,405.29,170.47,405.335z"/>
						</g>
					</g>
				</g>
			</g>
			<g>
				<g>
					<path style="fill:#D6E9FC;" d="M381.679,403.568l-165.1,17.44c-2.214,0.231-4.196-1.376-4.428-3.589l-9.206-88.048
						c-0.231-2.214,1.376-4.196,3.589-4.427l165.1-17.44c2.214-0.231,4.196,1.376,4.428,3.589l9.206,88.048
						C385.5,401.354,383.893,403.336,381.679,403.568z"/>
					<g>
						
							<linearGradient id="SVGID_00000165951264533878601660000003793378841529599925_" gradientUnits="userSpaceOnUse" x1="202.8004" y1="726.1689" x2="197.275" y2="747.7684" gradientTransform="matrix(0.7768 0.6297 -0.6297 0.7768 576.1485 -345.4833)">
							<stop  offset="0" style="stop-color:#F4B5BD"/>
							<stop  offset="1" style="stop-color:#EC4457"/>
						</linearGradient>
						<path style="fill:url(#SVGID_00000165951264533878601660000003793378841529599925_);" d="M272.677,349.399
							c-1.213,1.093-5.332,9.221-8.497,12.497l-3.666,0.391l-0.376-3.667c2.551-3.774,9.651-9.486,10.47-10.898
							c0.819-1.413-0.516-3.092,0.747-4.144c1.263-1.053,3.384,1.163,3.384,1.163s2.609,1.619,1.838,3.071
							C275.808,349.265,273.889,348.306,272.677,349.399z"/>
						
							<linearGradient id="SVGID_00000116237718931518886190000013421742348799701657_" gradientUnits="userSpaceOnUse" x1="585.5386" y1="116.2602" x2="580.0132" y2="137.8596" gradientTransform="matrix(0.6297 -0.7768 0.7768 0.6297 -225.5078 729.1757)">
							<stop  offset="0" style="stop-color:#F4B5BD"/>
							<stop  offset="1" style="stop-color:#EC4457"/>
						</linearGradient>
						<path style="fill:url(#SVGID_00000116237718931518886190000013421742348799701657_);" d="M236.608,351.277
							c1.093,1.213,9.221,5.332,12.497,8.497l0.391,3.666l-3.667,0.376c-3.774-2.551-9.486-9.651-10.898-10.47
							s-3.092,0.516-4.144-0.747c-1.053-1.263,1.163-3.384,1.163-3.384s1.619-2.609,3.071-1.838
							C236.473,348.145,235.514,350.064,236.608,351.277z"/>
						
							<linearGradient id="SVGID_00000014617738852140628640000001359973385820208025_" gradientUnits="userSpaceOnUse" x1="1195.4474" y1="498.9984" x2="1189.922" y2="520.5979" gradientTransform="matrix(-0.7768 -0.6297 0.6297 -0.7768 849.1512 1530.832)">
							<stop  offset="0" style="stop-color:#F4B5BD"/>
							<stop  offset="1" style="stop-color:#EC4457"/>
						</linearGradient>
						<path style="fill:url(#SVGID_00000014617738852140628640000001359973385820208025_);" d="M238.485,387.346
							c1.213-1.093,5.332-9.221,8.497-12.497l3.666-0.391l0.376,3.667c-2.551,3.774-9.651,9.486-10.47,10.898
							c-0.819,1.413,0.516,3.092-0.747,4.144c-1.263,1.053-3.384-1.163-3.384-1.163s-2.609-1.619-1.838-3.071
							C235.354,387.48,237.273,388.439,238.485,387.346z"/>
						
							<linearGradient id="SVGID_00000182501452452158413900000017851303412539095228_" gradientUnits="userSpaceOnUse" x1="812.7092" y1="1108.9072" x2="807.1837" y2="1130.5067" gradientTransform="matrix(-0.6297 0.7768 -0.7768 -0.6297 1650.8075 456.173)">
							<stop  offset="0" style="stop-color:#F4B5BD"/>
							<stop  offset="1" style="stop-color:#EC4457"/>
						</linearGradient>
						<path style="fill:url(#SVGID_00000182501452452158413900000017851303412539095228_);" d="M274.554,385.468
							c-1.093-1.213-9.221-5.332-12.497-8.497l-0.391-3.666l3.667-0.376c3.774,2.551,9.486,9.651,10.898,10.47
							c1.413,0.819,3.092-0.516,4.144,0.747c1.053,1.263-1.163,3.384-1.163,3.384s-1.619,2.609-3.071,1.838
							C274.689,388.6,275.648,386.681,274.554,385.468z"/>
						<g>
							
								<linearGradient id="SVGID_00000097502442973120881430000010432391798316840884_" gradientUnits="userSpaceOnUse" x1="267.1145" y1="347.8065" x2="262.7695" y2="364.7915" gradientTransform="matrix(0.9946 -0.104 0.104 0.9946 -46.9467 26.3694)">
								<stop  offset="0" style="stop-color:#F4B5BD"/>
								<stop  offset="1" style="stop-color:#EC4457"/>
							</linearGradient>
							<path style="fill:url(#SVGID_00000097502442973120881430000010432391798316840884_);" d="M254.537,348.315
								c-0.066,1.282,2.162,8.093,2.224,11.674l-1.821,2.256l-2.248-1.83c-0.68-3.517,0.092-10.641-0.238-11.882
								c-0.33-1.241-2.006-1.432-1.889-2.72c0.117-1.288,2.529-1.235,2.529-1.235s2.351-0.55,2.73,0.686
								C256.204,346.499,254.603,347.033,254.537,348.315z"/>
							
								<linearGradient id="SVGID_00000154407517730594439210000005536217931951586202_" gradientUnits="userSpaceOnUse" x1="968.9817" y1="187.1663" x2="964.6367" y2="204.1514" gradientTransform="matrix(-0.104 -0.9946 0.9946 -0.104 146.3449 1352.2709)">
								<stop  offset="0" style="stop-color:#F4B5BD"/>
								<stop  offset="1" style="stop-color:#EC4457"/>
							</linearGradient>
							<path style="fill:url(#SVGID_00000154407517730594439210000005536217931951586202_);" d="M235.524,369.417
								c1.282,0.066,8.093-2.162,11.674-2.224l2.256,1.821l-1.83,2.248c-3.517,0.68-10.641-0.092-11.882,0.238
								c-1.241,0.33-1.432,2.006-2.72,1.889s-1.235-2.529-1.235-2.529s-0.55-2.351,0.685-2.73
								C233.708,367.75,234.242,369.35,235.524,369.417z"/>
							
								<linearGradient id="SVGID_00000017506475173827507340000005098378604185687230_" gradientUnits="userSpaceOnUse" x1="1129.6218" y1="889.0336" x2="1125.2769" y2="906.0186" gradientTransform="matrix(-0.9946 0.104 -0.104 -0.9946 1472.2465 1158.9792)">
								<stop  offset="0" style="stop-color:#F4B5BD"/>
								<stop  offset="1" style="stop-color:#EC4457"/>
							</linearGradient>
							<path style="fill:url(#SVGID_00000017506475173827507340000005098378604185687230_);" d="M256.625,388.43
								c0.066-1.282-2.162-8.093-2.225-11.674l1.821-2.256l2.248,1.83c0.68,3.517-0.092,10.641,0.238,11.882
								c0.33,1.241,2.006,1.432,1.889,2.72c-0.117,1.288-2.529,1.235-2.529,1.235s-2.351,0.55-2.73-0.685
								C254.959,390.246,256.559,389.712,256.625,388.43z"/>
							
								<linearGradient id="SVGID_00000018231173757911370780000003585716102620417204_" gradientUnits="userSpaceOnUse" x1="427.7546" y1="1049.6737" x2="423.4096" y2="1066.6587" gradientTransform="matrix(0.104 0.9946 -0.9946 0.104 1278.9548 -166.9222)">
								<stop  offset="0" style="stop-color:#F4B5BD"/>
								<stop  offset="1" style="stop-color:#EC4457"/>
							</linearGradient>
							<path style="fill:url(#SVGID_00000018231173757911370780000003585716102620417204_);" d="M275.638,367.328
								c-1.282-0.066-8.093,2.162-11.674,2.224l-2.256-1.821l1.83-2.248c3.517-0.68,10.641,0.092,11.882-0.238
								c1.241-0.33,1.432-2.006,2.72-1.889c1.288,0.117,1.235,2.529,1.235,2.529s0.55,2.351-0.685,2.73
								C277.454,368.995,276.921,367.395,275.638,367.328z"/>
						</g>
						
							<linearGradient id="SVGID_00000068646545766827064350000003531943683913137318_" gradientUnits="userSpaceOnUse" x1="184.1807" y1="692.5957" x2="220.7958" y2="835.7281" gradientTransform="matrix(0.7768 0.6297 -0.6297 0.7768 576.1485 -345.4833)">
							<stop  offset="0" style="stop-color:#F4B5BD"/>
							<stop  offset="1" style="stop-color:#EC4457"/>
						</linearGradient>
						
							<circle style="fill:url(#SVGID_00000068646545766827064350000003531943683913137318_);" cx="255.581" cy="368.372" r="16.45"/>
					</g>
				</g>
				<g>
					<path style="fill:#A0BEED;" d="M365.895,384.644l-73.515,7.686c-2.004,0.21-3.798-1.245-4.008-3.249l-4.993-47.752
						c-0.21-2.004,1.245-3.798,3.249-4.008l73.515-7.686c2.004-0.21,3.798,1.245,4.008,3.249l4.993,47.752
						C369.354,382.64,367.899,384.435,365.895,384.644z"/>
					<g>
						<path style="fill:#FFFFFF;" d="M353.785,344.89l-57.78,6.041c-0.793,0.083-1.503-0.493-1.585-1.285l0,0
							c-0.083-0.793,0.493-1.503,1.285-1.586l57.78-6.041c0.793-0.083,1.503,0.493,1.586,1.285v0
							C355.154,344.098,354.578,344.807,353.785,344.89z"/>
						<path style="fill:#FFFFFF;" d="M354.796,354.562l-57.78,6.041c-0.793,0.083-1.503-0.493-1.585-1.285l0,0
							c-0.083-0.793,0.493-1.503,1.285-1.586l57.78-6.041c0.793-0.083,1.503,0.493,1.586,1.285l0,0
							C356.165,353.769,355.589,354.479,354.796,354.562z"/>
						<path style="fill:#FFFFFF;" d="M355.808,364.233l-57.78,6.041c-0.793,0.083-1.503-0.493-1.586-1.285l0,0
							c-0.083-0.793,0.493-1.503,1.285-1.586l57.78-6.041c0.793-0.083,1.503,0.493,1.586,1.285l0,0
							C357.176,363.44,356.6,364.15,355.808,364.233z"/>
						<path style="fill:#FFFFFF;" d="M330.413,376.665l-31.374,3.28c-0.793,0.083-1.503-0.493-1.586-1.285l0,0
							c-0.083-0.793,0.493-1.503,1.285-1.586l31.374-3.28c0.793-0.083,1.503,0.493,1.585,1.285l0,0
							C331.782,375.872,331.206,376.582,330.413,376.665z"/>
					</g>
				</g>
			</g>
		</g>
	</g>
</g>
</svg>
